STARTFONT 2.1
FONT -FontForge-Courgette-Book-R-Normal--24-240-72-72-P-124-ISO10646-1
SIZE 24 72 72
FONTBOUNDINGBOX 32 31 -5 -7
COMMENT "Generated by fontforge, http://fontforge.sourceforge.net"
COMMENT "Copyright (c) 2012, Sorkin Type Co (www.sorkintype.com) with Reserved Font Name "Courgette"."
STARTPROPERTIES 40
FOUNDRY "FontForge"
FAMILY_NAME "Courgette"
WEIGHT_NAME "Book"
SLANT "R"
SETWIDTH_NAME "Normal"
ADD_STYLE_NAME ""
PIXEL_SIZE 24
POINT_SIZE 240
RESOLUTION_X 72
RESOLUTION_Y 72
SPACING "P"
AVERAGE_WIDTH 124
CHARSET_REGISTRY "ISO10646"
CHARSET_ENCODING "1"
FONTNAME_REGISTRY ""
CHARSET_COLLECTIONS "ISO8859-2 ISO8859-9 ISO8859-4 ISO10646-1"
FONT_NAME "Courgette-Regular"
FACE_NAME "Courgette Regular"
COPYRIGHT "Copyright (c) 2012, Sorkin Type Co (www.sorkintype.com) with Reserved Font Name "Courgette"."
FONT_VERSION "1.002"
FONT_ASCENT 19
FONT_DESCENT 5
UNDERLINE_POSITION -2
UNDERLINE_THICKNESS 2
X_HEIGHT 11
CAP_HEIGHT 17
DEFAULT_CHAR 1
RAW_ASCENT 799
RAW_DESCENT 200
NORM_SPACE 7
RELATIVE_WEIGHT 40
RELATIVE_SETWIDTH 50
SUPERSCRIPT_X 0
SUPERSCRIPT_Y 11
SUPERSCRIPT_SIZE 15
SUBSCRIPT_X 0
SUBSCRIPT_Y 3
SUBSCRIPT_SIZE 15
AVG_LOWERCASE_WIDTH 119
AVG_UPPERCASE_WIDTH 140
ENDPROPERTIES
CHARS 407
STARTCHAR .null.dup1
ENCODING 0
SWIDTH 0 0
DWIDTH 0 0
BBX 1 1 0 0
BITMAP
00
ENDCHAR
STARTCHAR uni0001
ENCODING 1
SWIDTH 0 0
DWIDTH 0 0
BBX 1 1 0 0
BITMAP
00
ENDCHAR
STARTCHAR uni0002
ENCODING 2
SWIDTH 0 0
DWIDTH 0 0
BBX 1 1 0 0
BITMAP
00
ENDCHAR
STARTCHAR uni0003
ENCODING 3
SWIDTH 0 0
DWIDTH 0 0
BBX 1 1 0 0
BITMAP
00
ENDCHAR
STARTCHAR uni0004
ENCODING 4
SWIDTH 0 0
DWIDTH 0 0
BBX 1 1 0 0
BITMAP
00
ENDCHAR
STARTCHAR uni0005
ENCODING 5
SWIDTH 0 0
DWIDTH 0 0
BBX 1 1 0 0
BITMAP
00
ENDCHAR
STARTCHAR uni0006
ENCODING 6
SWIDTH 0 0
DWIDTH 0 0
BBX 1 1 0 0
BITMAP
00
ENDCHAR
STARTCHAR uni0007
ENCODING 7
SWIDTH 0 0
DWIDTH 0 0
BBX 1 1 0 0
BITMAP
00
ENDCHAR
STARTCHAR uni0008
ENCODING 8
SWIDTH 0 0
DWIDTH 0 0
BBX 1 1 0 0
BITMAP
00
ENDCHAR
STARTCHAR uni0009
ENCODING 9
SWIDTH 0 0
DWIDTH 0 0
BBX 1 1 0 0
BITMAP
00
ENDCHAR
STARTCHAR nonmarkingreturn
ENCODING 13
SWIDTH 0 0
DWIDTH 0 0
BBX 1 1 0 0
BITMAP
00
ENDCHAR
STARTCHAR uni0015
ENCODING 21
SWIDTH 0 0
DWIDTH 0 0
BBX 1 1 0 0
BITMAP
00
ENDCHAR
STARTCHAR uni0016
ENCODING 22
SWIDTH 0 0
DWIDTH 0 0
BBX 1 1 0 0
BITMAP
00
ENDCHAR
STARTCHAR uni0017
ENCODING 23
SWIDTH 0 0
DWIDTH 0 0
BBX 1 1 0 0
BITMAP
00
ENDCHAR
STARTCHAR uni0018
ENCODING 24
SWIDTH 0 0
DWIDTH 0 0
BBX 1 1 0 0
BITMAP
00
ENDCHAR
STARTCHAR uni0019
ENCODING 25
SWIDTH 0 0
DWIDTH 0 0
BBX 1 1 0 0
BITMAP
00
ENDCHAR
STARTCHAR space
ENCODING 32
SWIDTH 307 0
DWIDTH 7 0
BBX 1 1 0 0
BITMAP
00
ENDCHAR
STARTCHAR exclam
ENCODING 33
SWIDTH 417 0
DWIDTH 10 0
BBX 9 18 2 0
BITMAP
0380
0780
0700
0E00
0E00
1C00
1C00
1800
3800
3000
3000
3000
2000
0000
4000
F000
F000
E000
ENDCHAR
STARTCHAR quotedbl
ENCODING 34
SWIDTH 437 0
DWIDTH 10 0
BBX 9 6 3 13
BITMAP
3180
7380
6700
E700
C600
C400
ENDCHAR
STARTCHAR numbersign
ENCODING 35
SWIDTH 725 0
DWIDTH 17 0
BBX 16 18 1 0
BITMAP
00C6
00CE
01CC
018C
019C
0318
3FFF
3FFF
0630
0630
0620
7FFE
FFFC
0C40
08C0
18C0
1880
1180
ENDCHAR
STARTCHAR dollar
ENCODING 36
SWIDTH 545 0
DWIDTH 13 0
BBX 13 25 1 -3
BITMAP
0008
0038
0030
0030
01E0
0730
0E18
1C18
1838
1838
3870
3CF0
1C40
1E00
0E00
0F00
0700
6380
E300
E300
7600
3C00
3000
2000
6000
ENDCHAR
STARTCHAR percent
ENCODING 37
SWIDTH 876 0
DWIDTH 21 0
BBX 17 18 2 0
BITMAP
1E0300
370300
630600
E70C00
C71C00
C63800
CE7000
786000
00C000
018F00
039D80
073980
0E3180
0C7180
187380
306300
603600
403C00
ENDCHAR
STARTCHAR ampersand
ENCODING 38
SWIDTH 563 0
DWIDTH 14 0
BBX 13 18 1 0
BITMAP
03E0
0FB0
1C18
3818
3830
30F0
70E0
3040
3E00
1F00
3800
7008
E3F0
E1E0
C180
E180
F700
3C00
ENDCHAR
STARTCHAR quotesingle
ENCODING 39
SWIDTH 231 0
DWIDTH 6 0
BBX 4 6 3 13
BITMAP
30
70
60
E0
C0
C0
ENDCHAR
STARTCHAR parenleft
ENCODING 40
SWIDTH 478 0
DWIDTH 11 0
BBX 11 27 3 -6
BITMAP
0060
00C0
0180
0300
0600
0C00
1C00
1800
3800
3000
7000
6000
E000
E000
E000
C000
C000
C000
C000
C000
C000
E000
E000
6000
7000
3000
1800
ENDCHAR
STARTCHAR parenright
ENCODING 41
SWIDTH 478 0
DWIDTH 11 0
BBX 11 27 -2 -6
BITMAP
0300
0180
01C0
00C0
00E0
0060
0060
0060
0060
0060
0060
0060
0060
00E0
00E0
00C0
01C0
01C0
0180
0300
0700
0600
0C00
1800
3000
6000
C000
ENDCHAR
STARTCHAR asterisk
ENCODING 42
SWIDTH 518 0
DWIDTH 12 0
BBX 9 9 3 9
BITMAP
0E00
0E00
4C00
7B80
7F80
1800
7C00
C600
8600
ENDCHAR
STARTCHAR plus
ENCODING 43
SWIDTH 617 0
DWIDTH 15 0
BBX 12 12 2 3
BITMAP
0400
0400
0400
0400
0400
FFF0
0400
0400
0400
0400
0400
0400
ENDCHAR
STARTCHAR comma
ENCODING 44
SWIDTH 312 0
DWIDTH 8 0
BBX 5 7 0 -3
BITMAP
70
78
30
30
30
60
C0
ENDCHAR
STARTCHAR hyphen
ENCODING 45
SWIDTH 452 0
DWIDTH 11 0
BBX 7 2 2 6
BITMAP
FE
FE
ENDCHAR
STARTCHAR period
ENCODING 46
SWIDTH 270 0
DWIDTH 6 0
BBX 3 4 1 -1
BITMAP
E0
E0
E0
40
ENDCHAR
STARTCHAR slash
ENCODING 47
SWIDTH 405 0
DWIDTH 10 0
BBX 16 25 -2 -4
BITMAP
0003
0006
0006
000C
001C
0018
0038
0030
0060
0060
00C0
01C0
0180
0380
0300
0600
0600
0C00
1C00
1800
3800
3000
6000
6000
C000
ENDCHAR
STARTCHAR zero
ENCODING 48
SWIDTH 621 0
DWIDTH 15 0
BBX 13 18 2 0
BITMAP
01E0
0730
0E18
1C18
1818
3838
7038
7038
6030
E070
E070
C0E0
C0E0
C1C0
C380
C300
EE00
7C00
ENDCHAR
STARTCHAR one
ENCODING 49
SWIDTH 405 0
DWIDTH 10 0
BBX 8 18 2 0
BITMAP
06
0F
3F
7E
46
0E
0E
0C
1C
18
18
38
30
70
60
C0
C0
80
ENDCHAR
STARTCHAR two
ENCODING 50
SWIDTH 524 0
DWIDTH 13 0
BBX 13 18 0 0
BITMAP
03E0
0770
0E38
1C18
1C38
1C38
1E70
00F0
01E0
03C0
0780
0F00
1E00
1C00
3000
6060
FFE0
C7C0
ENDCHAR
STARTCHAR three
ENCODING 51
SWIDTH 537 0
DWIDTH 13 0
BBX 12 18 1 0
BITMAP
03C0
0F70
1C30
1830
3830
3870
1C70
00E0
03C0
0F80
0F00
0180
0180
6180
E380
C300
EF00
7C00
ENDCHAR
STARTCHAR four
ENCODING 52
SWIDTH 529 0
DWIDTH 13 0
BBX 12 18 1 0
BITMAP
0C00
0E00
0E00
0C00
1C00
1C60
38E0
38E0
70E0
61C0
E1C0
7FF0
0380
0300
0600
0600
0C00
0800
ENDCHAR
STARTCHAR five
ENCODING 53
SWIDTH 540 0
DWIDTH 13 0
BBX 14 18 1 0
BITMAP
079C
07F8
0E78
0C00
1C00
1800
1F80
3DC0
30E0
20E0
00E0
00E0
61C0
E1C0
C380
C380
EE00
7C00
ENDCHAR
STARTCHAR six
ENCODING 54
SWIDTH 554 0
DWIDTH 13 0
BBX 12 18 2 0
BITMAP
03E0
0770
0C30
1870
38E0
70E0
7000
6F80
F9C0
F0C0
E0C0
E0C0
C1C0
C1C0
C380
C300
6E00
3C00
ENDCHAR
STARTCHAR seven
ENCODING 55
SWIDTH 473 0
DWIDTH 11 0
BBX 10 18 3 0
BITMAP
C3C0
FFC0
7DC0
0180
0300
0700
0E00
0C00
1C00
3800
3000
7000
6000
E000
E000
C000
C000
C000
ENDCHAR
STARTCHAR eight
ENCODING 56
SWIDTH 524 0
DWIDTH 13 0
BBX 12 18 1 0
BITMAP
03C0
0EE0
0C70
1830
1830
1870
1C70
1CE0
1FC0
0F80
1F00
3F00
6380
E180
E180
E180
7300
3C00
ENDCHAR
STARTCHAR nine
ENCODING 57
SWIDTH 554 0
DWIDTH 13 0
BBX 12 18 1 0
BITMAP
03C0
0F70
1C30
1830
3830
3830
3070
3070
30F0
39E0
1F60
00E0
00C0
21C0
E180
E300
EE00
7800
ENDCHAR
STARTCHAR colon
ENCODING 58
SWIDTH 312 0
DWIDTH 8 0
BBX 5 12 1 -1
BITMAP
10
38
38
38
00
00
00
00
E0
F0
E0
40
ENDCHAR
STARTCHAR semicolon
ENCODING 59
SWIDTH 312 0
DWIDTH 8 0
BBX 7 15 0 -3
BITMAP
08
1E
1C
1C
00
00
00
00
70
78
30
30
30
60
C0
ENDCHAR
STARTCHAR less
ENCODING 60
SWIDTH 637 0
DWIDTH 15 0
BBX 12 13 2 1
BITMAP
0030
00E0
03C0
0700
1E00
7800
E000
F000
3C00
0F00
0380
00E0
0070
ENDCHAR
STARTCHAR equal
ENCODING 61
SWIDTH 617 0
DWIDTH 15 0
BBX 12 6 2 6
BITMAP
FFF0
0000
0000
0000
0000
FFF0
ENDCHAR
STARTCHAR greater
ENCODING 62
SWIDTH 606 0
DWIDTH 15 0
BBX 12 13 2 1
BITMAP
C000
F000
3C00
0E00
0780
01E0
00F0
01C0
0780
1E00
3800
E000
8000
ENDCHAR
STARTCHAR question
ENCODING 63
SWIDTH 516 0
DWIDTH 12 0
BBX 11 18 2 0
BITMAP
0780
0EC0
1860
1860
1CE0
19C0
03C0
0780
0E00
1C00
3800
3000
2000
0000
E000
F000
F000
6000
ENDCHAR
STARTCHAR at
ENCODING 64
SWIDTH 905 0
DWIDTH 22 0
BBX 20 19 1 -3
BITMAP
007F00
03C3C0
0600E0
0C0070
180030
307B30
30CF30
618E30
638E30
E30C30
E71C60
C738E0
E739C0
E3CF00
600000
700000
300000
1C0800
0FF000
ENDCHAR
STARTCHAR A
ENCODING 65
SWIDTH 615 0
DWIDTH 15 0
BBX 18 18 -2 0
BITMAP
0003C0
000F80
001980
003380
006300
00C700
00C600
018E00
03FF80
0FFF80
0E0C00
061C00
0C1C00
1C1800
181800
381900
701F00
E00E00
ENDCHAR
STARTCHAR B
ENCODING 66
SWIDTH 551 0
DWIDTH 13 0
BBX 13 18 1 0
BITMAP
0FE0
3E78
7018
0C18
1E18
1C38
3838
3870
71E0
7F80
79C0
60E0
E0E0
C0E0
C1C0
C3C0
FF00
7C00
ENDCHAR
STARTCHAR C
ENCODING 67
SWIDTH 533 0
DWIDTH 13 0
BBX 14 18 1 0
BITMAP
00F0
03D8
0708
0E1C
1C18
3838
3878
70F0
7000
6000
E000
E000
E000
E000
E000
60C0
73C0
1F00
ENDCHAR
STARTCHAR D
ENCODING 68
SWIDTH 630 0
DWIDTH 15 0
BBX 15 18 1 0
BITMAP
1FE0
7C78
301C
060C
0E0C
1E0E
1C0E
380C
381C
381C
7018
7038
6070
E0E0
E1C0
E380
EF00
7C00
ENDCHAR
STARTCHAR E
ENCODING 69
SWIDTH 509 0
DWIDTH 12 0
BBX 13 18 1 0
BITMAP
01F0
0798
0E18
1C18
3838
38F0
30E0
3000
3800
1F00
1F00
7800
7000
E000
E080
E180
6780
3E00
ENDCHAR
STARTCHAR F
ENCODING 70
SWIDTH 518 0
DWIDTH 12 0
BBX 14 18 1 0
BITMAP
3F04
7FFC
F1F8
E300
4700
0700
0600
0E00
0FC0
3FE0
3C00
1C00
1800
3800
3000
7000
E000
C000
ENDCHAR
STARTCHAR G
ENCODING 71
SWIDTH 598 0
DWIDTH 14 0
BBX 14 18 1 0
BITMAP
00F0
03D8
070C
0E1C
1C18
3838
3870
7070
7000
7000
E1F8
E1F8
E0F0
E0C0
E0C0
6180
7B00
1E00
ENDCHAR
STARTCHAR H
ENCODING 72
SWIDTH 668 0
DWIDTH 16 0
BBX 18 18 -1 0
BITMAP
0F00C0
1F81C0
0381C0
038180
038380
030380
070300
070300
0FFF80
1E0700
0E0E00
0C0C00
1C0C00
181C00
381800
301800
601E00
C01C00
ENDCHAR
STARTCHAR I
ENCODING 73
SWIDTH 327 0
DWIDTH 8 0
BBX 8 18 0 0
BITMAP
1F
3B
03
07
07
07
07
0E
0E
0E
0C
1C
18
38
30
70
E0
C0
ENDCHAR
STARTCHAR J
ENCODING 74
SWIDTH 393 0
DWIDTH 9 0
BBX 14 24 -4 -6
BITMAP
00F8
03DC
079C
031C
001C
001C
0038
0038
0038
0070
0070
0070
00E0
00E0
01C0
01C0
0380
0380
0700
0E00
0C00
1C00
7000
E000
ENDCHAR
STARTCHAR K
ENCODING 75
SWIDTH 616 0
DWIDTH 15 0
BBX 17 18 -1 0
BITMAP
1F0700
1B0300
038380
030300
070700
070E00
071C00
073800
0E7000
0EC000
0F8000
1DC000
1CE000
38E000
387000
707800
E03D00
C01E00
ENDCHAR
STARTCHAR L
ENCODING 76
SWIDTH 517 0
DWIDTH 12 0
BBX 15 18 -1 0
BITMAP
0078
00EC
01C4
038E
038C
071C
073C
0678
0E70
0E00
1C00
1C00
1800
3800
3000
77E0
FFF0
7830
ENDCHAR
STARTCHAR M
ENCODING 77
SWIDTH 931 0
DWIDTH 22 0
BBX 25 18 -3 0
BITMAP
00078380
000F8780
001B0D80
00371F80
00661B00
006E3700
00CE3700
00CC6600
018CCE00
039CCE00
031D8C00
071D8C00
061B1C00
0C1B1C00
1C1E1C00
181E1C00
301C1F00
E0180E00
ENDCHAR
STARTCHAR N
ENCODING 78
SWIDTH 708 0
DWIDTH 17 0
BBX 19 18 0 0
BITMAP
00C1C0
01C1C0
03C0E0
07C0E0
0FC0C0
0DC1C0
1DC1C0
19C180
19C380
30C300
30E600
70E600
60E400
60EC00
607800
607800
E03800
401800
ENDCHAR
STARTCHAR O
ENCODING 79
SWIDTH 655 0
DWIDTH 16 0
BBX 15 18 1 0
BITMAP
00F8
03DC
070E
0E06
1C06
1C06
380E
380E
700E
701C
601C
6038
E038
E070
60E0
61C0
3380
1E00
ENDCHAR
STARTCHAR P
ENCODING 80
SWIDTH 553 0
DWIDTH 13 0
BBX 16 18 -1 0
BITMAP
03F8
0F8E
1E06
0987
0387
0307
070E
071E
063C
0FF0
0FC0
1C00
1C00
1800
3800
3000
6000
C000
ENDCHAR
STARTCHAR Q
ENCODING 81
SWIDTH 655 0
DWIDTH 16 0
BBX 15 21 2 -3
BITMAP
01F0
07B8
0E18
1C1C
381C
701C
701C
601C
E038
E038
C070
E070
E0E0
F1C0
6380
0700
1C00
7F80
03C0
00F2
007E
ENDCHAR
STARTCHAR R
ENCODING 82
SWIDTH 623 0
DWIDTH 15 0
BBX 16 18 -1 0
BITMAP
03F8
0F8E
0E07
0183
0387
0387
0707
070E
073C
0EF8
0FE0
0CC0
1CE0
1860
3870
3038
703D
E01E
ENDCHAR
STARTCHAR S
ENCODING 83
SWIDTH 474 0
DWIDTH 11 0
BBX 12 18 1 0
BITMAP
03C0
0F60
1C30
3830
3830
3070
30F0
39E0
3880
3C00
1E00
0E00
0700
C700
C700
C600
EE00
7800
ENDCHAR
STARTCHAR T
ENCODING 84
SWIDTH 471 0
DWIDTH 11 0
BBX 14 18 1 0
BITMAP
3F04
7FFC
71F8
6380
4380
0300
0700
0700
0700
0E00
0E00
0E00
0C00
1C00
1800
3800
7000
E000
ENDCHAR
STARTCHAR U
ENCODING 85
SWIDTH 624 0
DWIDTH 15 0
BBX 17 18 0 0
BITMAP
0F0300
070380
070700
070700
060E00
0E0E00
0C1C00
1C1C00
183C00
383800
387800
70F800
70B000
61B000
633000
E63200
7C3C00
783800
ENDCHAR
STARTCHAR V
ENCODING 86
SWIDTH 587 0
DWIDTH 14 0
BBX 15 19 2 0
BITMAP
000E
3C0E
FE0E
6606
0E0E
0C0E
1C1C
1818
3838
3070
70E0
71C0
6380
E700
CE00
CC00
D800
F000
6000
ENDCHAR
STARTCHAR W
ENCODING 87
SWIDTH 941 0
DWIDTH 23 0
BBX 22 18 2 0
BITMAP
380018
FC003C
EE001C
0E001C
1C0E1C
1C3C1C
38781C
38F818
71F038
71F038
636030
E66070
E6E060
CCE0C0
D8E180
D0E300
F06E00
603C00
ENDCHAR
STARTCHAR X
ENCODING 88
SWIDTH 552 0
DWIDTH 13 0
BBX 18 18 -1 0
BITMAP
0181C0
038380
038700
038E00
039C00
03B800
03B000
03E000
01C000
01C000
03C000
03C000
07C000
0CE000
1CE000
38F000
707C00
C03800
ENDCHAR
STARTCHAR Y
ENCODING 89
SWIDTH 580 0
DWIDTH 14 0
BBX 17 24 0 -6
BITMAP
0F0300
070380
070700
070600
0E0E00
0E0E00
0C1C00
1C1C00
183C00
387800
307800
70F000
70B000
61F000
E36000
E6E000
7CC000
79C000
018000
030000
070000
0E0000
1C0000
700000
ENDCHAR
STARTCHAR Z
ENCODING 90
SWIDTH 501 0
DWIDTH 12 0
BBX 14 18 0 0
BITMAP
1838
1FFC
0F9C
003C
0078
00F0
01E0
03C0
0780
0700
0E00
1C00
3800
7000
6000
CFC0
FFE0
F020
ENDCHAR
STARTCHAR bracketleft
ENCODING 91
SWIDTH 396 0
DWIDTH 10 0
BBX 13 25 0 -4
BITMAP
0078
00E0
00C0
01C0
0180
0380
0380
0300
0700
0700
0600
0E00
0C00
0C00
1C00
1800
1800
3800
3000
3000
7000
6000
6000
E000
F800
ENDCHAR
STARTCHAR backslash
ENCODING 92
SWIDTH 464 0
DWIDTH 11 0
BBX 8 25 1 -4
BITMAP
C0
C0
60
60
60
60
30
30
30
30
18
18
18
18
0C
0C
0C
0C
06
06
06
06
03
03
03
ENDCHAR
STARTCHAR bracketright
ENCODING 93
SWIDTH 394 0
DWIDTH 9 0
BBX 12 25 -1 -4
BITMAP
01F0
0070
0070
0060
0060
00E0
00C0
00C0
01C0
0180
0380
0380
0300
0700
0700
0600
0E00
0E00
0C00
1C00
1800
1800
3800
3000
F000
ENDCHAR
STARTCHAR asciicircum
ENCODING 94
SWIDTH 540 0
DWIDTH 13 0
BBX 11 10 2 8
BITMAP
0600
0E00
0E00
1F00
1B00
3180
3180
60C0
60C0
C060
ENDCHAR
STARTCHAR underscore
ENCODING 95
SWIDTH 530 0
DWIDTH 13 0
BBX 16 2 -4 -4
BITMAP
7FFF
FFFF
ENDCHAR
STARTCHAR grave
ENCODING 96
SWIDTH 219 0
DWIDTH 5 0
BBX 3 6 1 13
BITMAP
E0
E0
E0
E0
60
20
ENDCHAR
STARTCHAR a
ENCODING 97
SWIDTH 541 0
DWIDTH 13 0
BBX 12 12 1 0
BITMAP
0730
1CF0
38E0
70E0
70C0
E1C0
E1C0
E380
C380
C580
EDE0
71E0
ENDCHAR
STARTCHAR b
ENCODING 98
SWIDTH 525 0
DWIDTH 13 0
BBX 11 20 1 0
BITMAP
0800
0C00
0C00
0C00
1C00
1800
1800
3800
3380
37C0
78E0
70E0
70E0
E0E0
E1C0
C1C0
C380
C700
FE00
7C00
ENDCHAR
STARTCHAR c
ENCODING 99
SWIDTH 465 0
DWIDTH 11 0
BBX 10 12 1 0
BITMAP
0780
1CC0
38C0
71C0
61C0
E380
E000
E000
C000
E100
E700
3C00
ENDCHAR
STARTCHAR d
ENCODING 100
SWIDTH 557 0
DWIDTH 13 0
BBX 15 20 1 0
BITMAP
0004
000E
001C
001C
0018
0038
0038
0030
07F0
0EF0
1860
30E0
70E0
60C0
E1C0
E1C0
E3C0
E780
EDF0
78E0
ENDCHAR
STARTCHAR e
ENCODING 101
SWIDTH 471 0
DWIDTH 11 0
BBX 10 12 1 0
BITMAP
0780
1DC0
38C0
31C0
71C0
E380
EF00
F800
E000
E180
7700
3E00
ENDCHAR
STARTCHAR f
ENCODING 102
SWIDTH 393 0
DWIDTH 9 0
BBX 13 23 0 -3
BITMAP
00F0
0198
0398
0338
0778
0730
0600
0E00
0E00
0FC0
3FC0
3C00
1800
1800
3800
3800
3000
7000
7000
6000
E000
C000
C000
ENDCHAR
STARTCHAR g
ENCODING 103
SWIDTH 526 0
DWIDTH 13 0
BBX 12 19 1 -7
BITMAP
0780
1DF0
38E0
70E0
70E0
E0C0
E1C0
E1C0
E380
E780
EF80
7B00
0300
0700
0600
0C00
1C00
7800
6000
ENDCHAR
STARTCHAR h
ENCODING 104
SWIDTH 555 0
DWIDTH 13 0
BBX 12 20 0 0
BITMAP
0200
0300
0700
0700
0700
0600
0600
0E00
0C70
0CF0
1DB0
1B70
1E70
3C60
38E0
70C0
71C0
61C0
E1F0
C0E0
ENDCHAR
STARTCHAR i
ENCODING 105
SWIDTH 286 0
DWIDTH 7 0
BBX 7 18 1 0
BITMAP
0C
1E
1C
08
00
00
38
38
38
30
30
60
60
E0
C0
C0
F0
E0
ENDCHAR
STARTCHAR j
ENCODING 106
SWIDTH 281 0
DWIDTH 7 0
BBX 11 24 -4 -6
BITMAP
00E0
01E0
00E0
0040
0000
0000
03C0
01C0
01C0
01C0
0180
0380
0380
0300
0300
0700
0600
0E00
0C00
1C00
1800
3000
6000
C000
ENDCHAR
STARTCHAR k
ENCODING 107
SWIDTH 497 0
DWIDTH 12 0
BBX 12 20 0 0
BITMAP
0200
0300
0700
0700
0700
0600
0600
0E00
0C70
0C70
1C70
18E0
19C0
3700
3E00
7600
7700
6780
E3E0
C1C0
ENDCHAR
STARTCHAR l
ENCODING 108
SWIDTH 279 0
DWIDTH 7 0
BBX 7 20 1 0
BITMAP
04
0E
0E
0C
0C
1C
1C
18
38
38
30
70
70
60
E0
E0
C0
C8
F0
E0
ENDCHAR
STARTCHAR m
ENCODING 109
SWIDTH 814 0
DWIDTH 20 0
BBX 19 12 0 0
BITMAP
1C71C0
1CF3E0
1DB6E0
1B3CC0
1E29C0
3C7180
387380
70E380
70C300
61C300
E183C0
C18380
ENDCHAR
STARTCHAR n
ENCODING 110
SWIDTH 561 0
DWIDTH 13 0
BBX 13 12 0 0
BITMAP
1C70
1CF0
1DB8
1B30
1E70
3C60
38E0
70C0
70C0
61C0
E0F0
C0E0
ENDCHAR
STARTCHAR o
ENCODING 111
SWIDTH 514 0
DWIDTH 12 0
BBX 11 12 1 0
BITMAP
0780
1DC0
38C0
70E0
70C0
E0C0
E1C0
E1C0
C380
C700
EE00
7C00
ENDCHAR
STARTCHAR p
ENCODING 112
SWIDTH 550 0
DWIDTH 13 0
BBX 14 18 -2 -6
BITMAP
0E38
06DC
078C
070C
0E0C
0E1C
0C1C
1C38
1C38
1C70
1FE0
3B80
3000
3000
7000
6000
E000
4000
ENDCHAR
STARTCHAR q
ENCODING 113
SWIDTH 533 0
DWIDTH 13 0
BBX 12 18 1 -6
BITMAP
0780
1EF0
38F0
30E0
70E0
60C0
E1C0
E1C0
E380
E780
EF00
7B00
0300
0600
0600
0600
0600
0600
ENDCHAR
STARTCHAR r
ENCODING 114
SWIDTH 407 0
DWIDTH 10 0
BBX 11 12 0 0
BITMAP
38E0
1DE0
1BC0
1A00
1C00
3800
3800
3000
7000
6000
E000
6000
ENDCHAR
STARTCHAR s
ENCODING 115
SWIDTH 423 0
DWIDTH 10 0
BBX 10 12 0 0
BITMAP
0F80
1DC0
38C0
38C0
3800
1C00
1E00
0E00
4700
C600
FE00
7C00
ENDCHAR
STARTCHAR t
ENCODING 116
SWIDTH 358 0
DWIDTH 9 0
BBX 8 15 2 0
BITMAP
0C
1C
18
FF
30
70
70
60
E0
E0
C0
C0
CC
F8
70
ENDCHAR
STARTCHAR u
ENCODING 117
SWIDTH 553 0
DWIDTH 13 0
BBX 12 12 1 0
BITMAP
3830
3870
3860
38E0
31C0
71C0
63C0
E780
C580
D980
F1E0
E1C0
ENDCHAR
STARTCHAR v
ENCODING 118
SWIDTH 510 0
DWIDTH 12 0
BBX 11 12 1 0
BITMAP
38C0
38E0
38E0
38E0
30E0
70C0
60C0
E180
C380
C700
FC00
F800
ENDCHAR
STARTCHAR w
ENCODING 119
SWIDTH 750 0
DWIDTH 18 0
BBX 17 12 1 0
BITMAP
780700
386380
38E380
38C380
31C300
738300
638300
678600
ED8400
D98C00
F1F800
E0E000
ENDCHAR
STARTCHAR x
ENCODING 120
SWIDTH 467 0
DWIDTH 11 0
BBX 13 12 -1 0
BITMAP
0438
0C70
0CE0
0DC0
0F80
0F00
0E00
0E00
1F00
3300
73E0
E1C0
ENDCHAR
STARTCHAR y
ENCODING 121
SWIDTH 549 0
DWIDTH 13 0
BBX 12 18 1 -6
BITMAP
3830
3870
3870
38E0
30E0
71E0
63C0
E3C0
E580
CD80
FB80
E300
0300
0600
0E00
1C00
3800
7000
ENDCHAR
STARTCHAR z
ENCODING 122
SWIDTH 430 0
DWIDTH 10 0
BBX 11 12 0 0
BITMAP
1860
1FE0
00E0
03C0
0780
0F00
1C00
3800
7000
6700
FF80
6180
ENDCHAR
STARTCHAR braceleft
ENCODING 123
SWIDTH 424 0
DWIDTH 10 0
BBX 12 25 1 -4
BITMAP
00F0
00C0
01C0
0180
0380
0380
0300
0300
0700
0600
0E00
7C00
7000
3800
1800
3800
3800
3000
7000
7000
6000
E000
E000
E000
7000
ENDCHAR
STARTCHAR bar
ENCODING 124
SWIDTH 306 0
DWIDTH 7 0
BBX 2 25 3 -4
BITMAP
C0
C0
C0
C0
C0
C0
C0
C0
C0
C0
C0
C0
C0
C0
C0
C0
C0
C0
C0
C0
C0
C0
C0
C0
C0
ENDCHAR
STARTCHAR braceright
ENCODING 125
SWIDTH 424 0
DWIDTH 10 0
BBX 12 25 -2 -4
BITMAP
00F0
0030
0030
0030
0070
0070
0060
00E0
00E0
00C0
00C0
00C0
00E0
01E0
03C0
0700
0700
0600
0E00
0E00
0C00
0C00
1C00
3800
F800
ENDCHAR
STARTCHAR asciitilde
ENCODING 126
SWIDTH 624 0
DWIDTH 15 0
BBX 12 5 2 6
BITMAP
3C10
7E10
CF30
87E0
83C0
ENDCHAR
STARTCHAR nonbreakingspace
ENCODING 160
SWIDTH 293 0
DWIDTH 7 0
BBX 1 1 0 0
BITMAP
00
ENDCHAR
STARTCHAR exclamdown
ENCODING 161
SWIDTH 417 0
DWIDTH 10 0
BBX 8 20 1 -6
BITMAP
07
0F
0F
07
00
0C
08
18
38
30
70
70
60
E0
E0
E0
E0
C0
C0
40
ENDCHAR
STARTCHAR cent
ENCODING 162
SWIDTH 487 0
DWIDTH 12 0
BBX 10 18 2 0
BITMAP
00C0
0180
0300
0300
1F80
3980
7180
7380
E300
E000
E000
C000
E100
E300
7E00
3000
2000
6000
ENDCHAR
STARTCHAR sterling
ENCODING 163
SWIDTH 665 0
DWIDTH 16 0
BBX 17 18 -1 0
BITMAP
000F00
001D80
003980
007180
006180
00E380
00E700
01CE00
01C000
0FF800
0F8000
038000
030000
3F0000
670200
CFC600
FCFE00
787C00
ENDCHAR
STARTCHAR currency
ENCODING 164
SWIDTH 572 0
DWIDTH 14 0
BBX 14 15 1 1
BITMAP
0400
0C1C
0C38
0FF0
0EE0
1C60
3860
3860
30E0
30E0
31C0
3380
7F80
4080
C0C0
ENDCHAR
STARTCHAR yen
ENCODING 165
SWIDTH 583 0
DWIDTH 14 0
BBX 16 18 1 0
BITMAP
7007
F80F
381E
1C3C
0C38
0C70
06E0
06C0
07C0
0780
1FE0
3FC0
0700
3FC0
7F80
0C00
0C00
0C00
ENDCHAR
STARTCHAR brokenbar
ENCODING 166
SWIDTH 292 0
DWIDTH 7 0
BBX 2 25 3 -4
BITMAP
C0
C0
C0
C0
C0
C0
C0
C0
C0
C0
80
00
00
00
C0
C0
C0
C0
C0
C0
C0
C0
C0
C0
80
ENDCHAR
STARTCHAR section
ENCODING 167
SWIDTH 583 0
DWIDTH 14 0
BBX 14 24 0 -5
BITMAP
00F8
01CC
038C
030C
030C
033C
03B8
0380
07C0
1DC0
18E0
38E0
3870
3870
1C70
1C60
1EE0
0F80
0700
6700
E300
E300
E600
7C00
ENDCHAR
STARTCHAR dieresis
ENCODING 168
SWIDTH 412 0
DWIDTH 10 0
BBX 9 3 1 15
BITMAP
E380
F780
E380
ENDCHAR
STARTCHAR copyright
ENCODING 169
SWIDTH 871 0
DWIDTH 21 0
BBX 18 18 2 0
BITMAP
01F800
079E00
0C0300
18F180
31D9C0
6388C0
6718C0
C638C0
C670C0
CE20C0
CE01C0
CE0180
C63180
C3E300
600600
300C00
1E7800
07E000
ENDCHAR
STARTCHAR ordfeminine
ENCODING 170
SWIDTH 564 0
DWIDTH 14 0
BBX 10 10 3 7
BITMAP
0EC0
3BC0
71C0
6180
E380
C300
C700
C700
CB00
F3C0
ENDCHAR
STARTCHAR guillemotleft
ENCODING 171
SWIDTH 662 0
DWIDTH 16 0
BBX 13 10 2 2
BITMAP
0208
0C30
38E0
71C0
E380
E380
71C0
38E0
1C70
0820
ENDCHAR
STARTCHAR logicalnot
ENCODING 172
SWIDTH 729 0
DWIDTH 18 0
BBX 13 7 2 2
BITMAP
FFF8
0018
0018
0018
0018
0018
0018
ENDCHAR
STARTCHAR uni00AD
ENCODING 173
SWIDTH 833 0
DWIDTH 20 0
BBX 1 1 0 0
BITMAP
00
ENDCHAR
STARTCHAR registered
ENCODING 174
SWIDTH 742 0
DWIDTH 18 0
BBX 15 15 2 3
BITMAP
03F0
0E38
180C
37E6
6666
6326
4662
C7C6
C786
C486
CCEC
6018
7038
3FE0
0F80
ENDCHAR
STARTCHAR macron
ENCODING 175
SWIDTH 392 0
DWIDTH 9 0
BBX 8 2 2 14
BITMAP
FF
FE
ENDCHAR
STARTCHAR degree
ENCODING 176
SWIDTH 405 0
DWIDTH 10 0
BBX 7 7 3 11
BITMAP
3C
76
E6
C6
C6
CC
F8
ENDCHAR
STARTCHAR plusminus
ENCODING 177
SWIDTH 617 0
DWIDTH 15 0
BBX 12 16 2 0
BITMAP
0400
0400
0400
0400
0400
0400
FFF0
0400
0400
0400
0400
0400
0000
0000
0000
FFF0
ENDCHAR
STARTCHAR twosuperior
ENCODING 178
SWIDTH 458 0
DWIDTH 11 0
BBX 9 12 2 6
BITMAP
0F00
1980
3180
3180
3B80
1380
0700
1E00
3C00
7000
E100
FF00
ENDCHAR
STARTCHAR threesuperior
ENCODING 179
SWIDTH 430 0
DWIDTH 10 0
BBX 9 12 2 6
BITMAP
0F00
1B80
3180
3980
1380
0F00
1C00
0600
C600
C600
CE00
7800
ENDCHAR
STARTCHAR acute
ENCODING 180
SWIDTH 322 0
DWIDTH 8 0
BBX 5 6 2 13
BITMAP
18
18
18
38
70
C0
ENDCHAR
STARTCHAR mu
ENCODING 181
SWIDTH 618 0
DWIDTH 15 0
BBX 15 18 -1 -6
BITMAP
0306
070E
060C
0E1C
0C1C
1C38
1C78
3870
38B0
39B0
7F3C
6C38
6000
6000
E000
E000
C000
C000
ENDCHAR
STARTCHAR paragraph
ENCODING 182
SWIDTH 739 0
DWIDTH 18 0
BBX 19 20 1 -1
BITMAP
003FE0
01FD80
03F180
07F380
0FE380
0FE300
0FE300
0FE700
0FC700
07C600
01C600
01CE00
038C00
038C00
039800
731800
E71800
C63000
CC3000
F86000
ENDCHAR
STARTCHAR periodcentered
ENCODING 183
SWIDTH 353 0
DWIDTH 8 0
BBX 4 4 3 6
BITMAP
E0
F0
E0
40
ENDCHAR
STARTCHAR cedilla
ENCODING 184
SWIDTH 301 0
DWIDTH 7 0
BBX 4 6 2 -5
BITMAP
60
20
30
70
E0
C0
ENDCHAR
STARTCHAR onesuperior
ENCODING 185
SWIDTH 403 0
DWIDTH 10 0
BBX 7 13 3 5
BITMAP
0C
1E
3C
EC
1C
18
18
38
30
70
60
C0
80
ENDCHAR
STARTCHAR ordmasculine
ENCODING 186
SWIDTH 498 0
DWIDTH 12 0
BBX 9 10 3 7
BITMAP
1F00
3B80
7180
E180
E380
C380
C300
C700
CE00
7800
ENDCHAR
STARTCHAR guillemotright
ENCODING 187
SWIDTH 665 0
DWIDTH 16 0
BBX 14 10 1 2
BITMAP
30C0
38E0
1C70
0E38
071C
0E38
1C70
71C0
C300
8200
ENDCHAR
STARTCHAR onequarter
ENCODING 188
SWIDTH 988 0
DWIDTH 24 0
BBX 20 20 2 0
BITMAP
000200
000600
060E00
1E0C00
3E1800
EE1800
0C3000
1C7300
1C6300
18E700
38C760
318670
618E60
630C60
031CE0
061FF0
0E07C0
0C0180
180300
180200
ENDCHAR
STARTCHAR onehalf
ENCODING 189
SWIDTH 988 0
DWIDTH 24 0
BBX 20 19 2 0
BITMAP
000600
060600
0E0C00
3E1C00
FE1800
4C3800
0C3000
1C61E0
18E770
38C630
31C630
618770
6300E0
0301C0
060380
0E0700
0C0C20
181FE0
181FC0
ENDCHAR
STARTCHAR threequarters
ENCODING 190
SWIDTH 1007 0
DWIDTH 24 0
BBX 21 20 1 0
BITMAP
000080
000180
0F0180
1B8300
318700
398600
138C00
070C80
1C18C0
0618C0
6731D0
C67198
CE6398
78C318
00C630
0183F8
018060
030060
0700C0
060080
ENDCHAR
STARTCHAR questiondown
ENCODING 191
SWIDTH 516 0
DWIDTH 12 0
BBX 11 18 0 -4
BITMAP
00E0
01E0
01E0
00E0
0000
0080
0180
0380
0700
0F00
3C00
7800
7100
E700
C300
C300
E700
7E00
ENDCHAR
STARTCHAR Agrave
ENCODING 192
SWIDTH 615 0
DWIDTH 15 0
BBX 18 24 -2 0
BITMAP
000200
000600
000600
000700
000380
000000
0003C0
000F80
001980
003380
006300
00C700
00C600
018E00
03FF80
0FFF80
0E0C00
061C00
0C1C00
1C1800
181800
381900
701F00
E00E00
ENDCHAR
STARTCHAR Aacute
ENCODING 193
SWIDTH 615 0
DWIDTH 15 0
BBX 19 23 -2 0
BITMAP
000060
0000E0
0001C0
000380
000000
0003C0
000F80
001980
003380
006300
00C700
00C600
018E00
03FF80
0FFF80
0E0C00
061C00
0C1C00
1C1800
181800
381900
701F00
E00E00
ENDCHAR
STARTCHAR Acircumflex
ENCODING 194
SWIDTH 615 0
DWIDTH 15 0
BBX 19 23 -2 0
BITMAP
0001C0
0003C0
0006C0
001C60
000000
0003C0
000F80
001980
003380
006300
00C700
00C600
018E00
03FF80
0FFF80
0E0C00
061C00
0C1C00
1C1800
181800
381900
701F00
E00E00
ENDCHAR
STARTCHAR Atilde
ENCODING 195
SWIDTH 615 0
DWIDTH 15 0
BBX 20 23 -2 0
BITMAP
000710
000FB0
001BE0
0011C0
000000
0003C0
000F80
001980
003380
006300
00C700
00C600
018E00
03FF80
0FFF80
0E0C00
061C00
0C1C00
1C1800
181800
381900
701F00
E00E00
ENDCHAR
STARTCHAR Adieresis
ENCODING 196
SWIDTH 615 0
DWIDTH 15 0
BBX 20 23 -2 0
BITMAP
000C70
001EF0
001C70
000820
000000
0003C0
000F80
001980
003380
006300
00C700
00C600
018E00
03FF80
0FFF80
0E0C00
061C00
0C1C00
1C1800
181800
381900
701F00
E00E00
ENDCHAR
STARTCHAR Aring
ENCODING 197
SWIDTH 615 0
DWIDTH 15 0
BBX 19 23 -2 0
BITMAP
0003C0
000660
000660
000E60
0006C0
0007C0
000F80
001D80
003B80
006300
00E700
00C600
018E00
03FF80
0FFF80
0E0C00
061C00
0C1C00
1C1800
181800
381900
701F00
E00E00
ENDCHAR
STARTCHAR AE
ENCODING 198
SWIDTH 878 0
DWIDTH 21 0
BBX 25 18 -2 0
BITMAP
0003FF00
000FFB80
001CE180
0039C180
00738380
00638F00
00C30E00
01C30000
01830000
03FFF000
0FFFE000
06078000
0E070000
0C0E0000
180E0800
380E1800
700FF000
E003E000
ENDCHAR
STARTCHAR Ccedilla
ENCODING 199
SWIDTH 533 0
DWIDTH 13 0
BBX 14 23 1 -5
BITMAP
00F0
03D8
070C
0E1C
1C1C
3838
3878
7070
7000
7000
E000
E000
E000
E000
E000
60C0
7BC0
3F00
1800
0800
1800
7800
3000
ENDCHAR
STARTCHAR Egrave
ENCODING 200
SWIDTH 509 0
DWIDTH 12 0
BBX 13 24 1 0
BITMAP
0080
0180
01C0
01C0
0060
0000
01F0
0798
0E18
1C18
3838
38F0
30E0
3000
3800
1F00
1F00
7800
7000
E000
E080
E180
6780
3E00
ENDCHAR
STARTCHAR Eacute
ENCODING 201
SWIDTH 509 0
DWIDTH 12 0
BBX 13 23 1 0
BITMAP
0018
0018
0038
0060
0000
01F0
0798
0E18
1C18
3838
38F0
30E0
3000
3800
1F00
1F00
7800
7000
E000
E080
E180
6780
3E00
ENDCHAR
STARTCHAR Ecircumflex
ENCODING 202
SWIDTH 509 0
DWIDTH 12 0
BBX 14 23 1 0
BITMAP
0030
0070
01F8
031C
0000
01F0
0798
0E18
1C18
3838
38F0
30E0
3000
3800
1F00
1F00
7800
7000
E000
E080
E180
6780
3E00
ENDCHAR
STARTCHAR Edieresis
ENCODING 203
SWIDTH 509 0
DWIDTH 12 0
BBX 14 23 1 0
BITMAP
039C
079C
039C
0108
0000
01F0
0798
0E18
1C18
3838
38F0
30E0
3000
3800
1F00
1F00
7800
7000
E000
E080
E180
6780
3E00
ENDCHAR
STARTCHAR Igrave
ENCODING 204
SWIDTH 327 0
DWIDTH 8 0
BBX 9 24 0 0
BITMAP
0200
0600
0600
0700
0380
0000
1F00
3B00
0300
0700
0700
0700
0700
0E00
0E00
0E00
0C00
1C00
1800
3800
3000
7000
E000
C000
ENDCHAR
STARTCHAR Iacute
ENCODING 205
SWIDTH 327 0
DWIDTH 8 0
BBX 11 23 0 0
BITMAP
0060
00E0
01C0
0380
0000
1F00
3B00
0300
0700
0700
0700
0700
0E00
0E00
0E00
0C00
1C00
1800
3800
3000
7000
E000
C000
ENDCHAR
STARTCHAR Icircumflex
ENCODING 206
SWIDTH 327 0
DWIDTH 8 0
BBX 11 23 0 0
BITMAP
00C0
03C0
07E0
1C60
0000
1F00
3B00
0300
0700
0700
0700
0700
0E00
0E00
0E00
0C00
1C00
1800
3800
3000
7000
E000
C000
ENDCHAR
STARTCHAR Idieresis
ENCODING 207
SWIDTH 327 0
DWIDTH 8 0
BBX 12 23 0 0
BITMAP
0C70
1E70
1C70
0820
0000
1F00
3B00
0300
0700
0700
0700
0700
0E00
0E00
0E00
0C00
1C00
1800
3800
3000
7000
E000
C000
ENDCHAR
STARTCHAR Eth
ENCODING 208
SWIDTH 630 0
DWIDTH 15 0
BBX 14 18 1 0
BITMAP
1FC0
7C70
3018
061C
0E0C
1C0C
1C0C
FF8C
FF1C
301C
7038
7038
6070
E0E0
E1C0
E380
EF00
7C00
ENDCHAR
STARTCHAR Ntilde
ENCODING 209
SWIDTH 708 0
DWIDTH 17 0
BBX 19 23 0 0
BITMAP
000E20
001F20
0037C0
002380
000000
00C1C0
01C1C0
03C0E0
07C0E0
0FC0C0
0DC1C0
1DC1C0
19C180
19C380
30C300
30E600
70E600
60E400
60EC00
607800
607800
E03800
401800
ENDCHAR
STARTCHAR Ograve
ENCODING 210
SWIDTH 655 0
DWIDTH 16 0
BBX 15 24 1 0
BITMAP
0020
0060
0070
0038
0018
0000
00F8
03DC
070E
0E06
1C06
1C06
380E
380E
700E
701C
601C
6038
E038
E070
60E0
61C0
3380
1E00
ENDCHAR
STARTCHAR Oacute
ENCODING 211
SWIDTH 655 0
DWIDTH 16 0
BBX 15 23 1 0
BITMAP
0006
0006
000E
0018
0000
00F8
03DC
070E
0E06
1C06
1C06
380E
380E
700E
701C
601C
6038
E038
E070
60E0
61C0
3380
1E00
ENDCHAR
STARTCHAR Ocircumflex
ENCODING 212
SWIDTH 655 0
DWIDTH 16 0
BBX 16 23 1 0
BITMAP
000C
001C
007E
00C7
0000
00F8
03DC
070E
0E06
1C06
1C06
380E
380E
700E
701C
601C
6038
E038
E070
60E0
61C0
3380
1E00
ENDCHAR
STARTCHAR Otilde
ENCODING 213
SWIDTH 655 0
DWIDTH 16 0
BBX 17 23 1 0
BITMAP
007080
00F900
009F00
008E00
000000
00F800
03DC00
070E00
0E0600
1C0600
1C0600
380E00
380E00
700E00
701C00
601C00
603800
E03800
E07000
60E000
61C000
338000
1E0000
ENDCHAR
STARTCHAR Odieresis
ENCODING 214
SWIDTH 655 0
DWIDTH 16 0
BBX 17 23 1 0
BITMAP
00E300
00E780
00E700
004200
000000
00F800
03DC00
070E00
0E0600
1C0600
1C0600
380E00
380E00
700E00
701C00
601C00
603800
E03800
E07000
60E000
61C000
338000
1E0000
ENDCHAR
STARTCHAR multiply
ENCODING 215
SWIDTH 573 0
DWIDTH 14 0
BBX 10 9 2 3
BITMAP
C0C0
61C0
3380
1F00
0E00
1E00
3300
6180
C0C0
ENDCHAR
STARTCHAR Oslash
ENCODING 216
SWIDTH 655 0
DWIDTH 16 0
BBX 15 22 2 -2
BITMAP
0006
000E
00FC
03DC
073C
0E3E
1C6E
38CE
38CE
718E
710C
731C
E21C
E438
EC38
E870
F8E0
71C0
7380
7E00
4000
C000
ENDCHAR
STARTCHAR Ugrave
ENCODING 217
SWIDTH 624 0
DWIDTH 15 0
BBX 17 24 0 0
BITMAP
002000
006000
006000
007000
001800
000000
0F0300
070380
070700
070700
060E00
0E0E00
0C1C00
1C1C00
183C00
383800
387800
70F800
70B000
61B000
633000
E63200
7C3C00
783800
ENDCHAR
STARTCHAR Uacute
ENCODING 218
SWIDTH 624 0
DWIDTH 15 0
BBX 17 23 0 0
BITMAP
000600
000E00
000C00
001800
000000
0F0300
070380
070700
070700
060E00
0E0E00
0C1C00
1C1C00
183C00
383800
387800
70F800
70B000
61B000
633000
E63200
7C3C00
783800
ENDCHAR
STARTCHAR Ucircumflex
ENCODING 219
SWIDTH 624 0
DWIDTH 15 0
BBX 17 23 0 0
BITMAP
000C00
003C00
007E00
00C600
000000
0F0300
070380
070700
070700
060E00
0E0E00
0C1C00
1C1C00
183C00
383800
387800
70F800
70B000
61B000
633000
E63200
7C3C00
783800
ENDCHAR
STARTCHAR Udieresis
ENCODING 220
SWIDTH 624 0
DWIDTH 15 0
BBX 17 23 0 0
BITMAP
00C700
01E700
01E700
008200
000000
0F0300
070380
070700
070700
060E00
0E0E00
0C1C00
1C1C00
183C00
383800
387800
70F800
70B000
61B000
633000
E63200
7C3C00
783800
ENDCHAR
STARTCHAR Yacute
ENCODING 221
SWIDTH 580 0
DWIDTH 14 0
BBX 17 30 0 -6
BITMAP
000400
000E00
000E00
001C00
002000
000000
0F0300
070380
070700
070600
0E0E00
0E0E00
0C1C00
1C1C00
183C00
387800
307800
70F000
70B000
61F000
E36000
E6E000
7CC000
79C000
018000
030000
070000
0E0000
1C0000
700000
ENDCHAR
STARTCHAR Thorn
ENCODING 222
SWIDTH 527 0
DWIDTH 13 0
BBX 14 18 -1 0
BITMAP
1F00
1B00
0300
0300
0700
07F0
0738
061C
0E1C
0E1C
0C38
1C78
1FE0
3F00
3800
7000
E000
C000
ENDCHAR
STARTCHAR germandbls
ENCODING 223
SWIDTH 520 0
DWIDTH 13 0
BBX 14 23 -1 -3
BITMAP
00F0
01D8
038C
030C
071C
061C
0E38
0E70
0C60
0CC0
1CC0
1CC0
18C0
18E0
3870
3870
3238
7730
77F0
63E0
E000
E000
C000
ENDCHAR
STARTCHAR agrave
ENCODING 224
SWIDTH 541 0
DWIDTH 13 0
BBX 12 19 1 0
BITMAP
0300
0300
0300
0300
0180
0080
0000
0730
1CF0
38E0
70E0
70C0
E1C0
E1C0
E380
C380
C580
EDE0
71E0
ENDCHAR
STARTCHAR aacute
ENCODING 225
SWIDTH 541 0
DWIDTH 13 0
BBX 12 19 1 0
BITMAP
0040
00E0
00E0
01C0
0380
0700
0000
0730
1CF0
38E0
70E0
70C0
E1C0
E1C0
E380
C380
C580
EDE0
71E0
ENDCHAR
STARTCHAR acircumflex
ENCODING 226
SWIDTH 541 0
DWIDTH 13 0
BBX 12 19 1 0
BITMAP
0040
00E0
01E0
0360
0E70
0820
0000
0730
1CF0
38E0
70E0
70C0
E1C0
E1C0
E380
C380
C580
EDE0
71E0
ENDCHAR
STARTCHAR atilde
ENCODING 227
SWIDTH 541 0
DWIDTH 13 0
BBX 13 18 1 0
BITMAP
0308
0798
0DF0
08E0
0000
0000
0730
1CF0
38E0
70E0
70C0
E1C0
E1C0
E380
C380
C580
EDE0
71E0
ENDCHAR
STARTCHAR adieresis
ENCODING 228
SWIDTH 541 0
DWIDTH 13 0
BBX 13 18 1 0
BITMAP
0E30
0E78
0E70
0000
0000
0000
0730
1CF0
38E0
70E0
70C0
E1C0
E1C0
E380
C380
C580
EDE0
71E0
ENDCHAR
STARTCHAR aring
ENCODING 229
SWIDTH 541 0
DWIDTH 13 0
BBX 12 19 1 0
BITMAP
01E0
0360
0670
0660
07C0
0000
0000
0730
1CF0
38E0
70E0
70C0
E1C0
E1C0
E380
C380
C580
EDE0
71E0
ENDCHAR
STARTCHAR ae
ENCODING 230
SWIDTH 769 0
DWIDTH 18 0
BBX 17 12 1 0
BITMAP
073F00
1CFB80
38F380
70E380
60E380
E1C700
E1DE00
C3F800
C3C000
C7C300
ECEE00
707C00
ENDCHAR
STARTCHAR ccedilla
ENCODING 231
SWIDTH 465 0
DWIDTH 11 0
BBX 10 18 1 -6
BITMAP
0780
1DC0
38C0
71C0
61C0
E380
E000
C000
C000
E100
E700
7C00
1000
1800
1800
3800
7000
2000
ENDCHAR
STARTCHAR egrave
ENCODING 232
SWIDTH 471 0
DWIDTH 11 0
BBX 10 19 1 0
BITMAP
0700
0700
0600
0600
0300
0100
0000
0780
1DC0
38C0
31C0
71C0
E380
EF00
F800
E000
E180
7700
3E00
ENDCHAR
STARTCHAR eacute
ENCODING 233
SWIDTH 471 0
DWIDTH 11 0
BBX 10 19 1 0
BITMAP
0080
01C0
01C0
0380
0300
0600
0000
0780
1DC0
38C0
31C0
71C0
E380
EF00
F800
E000
E180
7700
3E00
ENDCHAR
STARTCHAR ecircumflex
ENCODING 234
SWIDTH 471 0
DWIDTH 11 0
BBX 11 19 1 0
BITMAP
0080
01C0
03C0
06C0
1CE0
1040
0000
0780
1DC0
38C0
31C0
71C0
E380
EF00
F800
E000
E180
7700
3E00
ENDCHAR
STARTCHAR edieresis
ENCODING 235
SWIDTH 471 0
DWIDTH 11 0
BBX 12 18 1 0
BITMAP
1C60
1CF0
1CE0
0000
0000
0000
0780
1DC0
38C0
31C0
6380
E700
FC00
E000
E080
E180
7700
3E00
ENDCHAR
STARTCHAR igrave
ENCODING 236
SWIDTH 286 0
DWIDTH 7 0
BBX 6 19 1 0
BITMAP
18
38
38
18
18
0C
00
38
38
38
30
30
60
60
E0
C0
C0
F0
E0
ENDCHAR
STARTCHAR iacute
ENCODING 237
SWIDTH 286 0
DWIDTH 7 0
BBX 7 19 1 0
BITMAP
06
06
0E
0E
1C
30
00
38
38
38
30
30
60
60
E0
C0
C0
F0
E0
ENDCHAR
STARTCHAR icircumflex
ENCODING 238
SWIDTH 286 0
DWIDTH 7 0
BBX 8 19 1 0
BITMAP
02
06
0F
3B
E3
41
00
38
38
38
30
30
60
60
E0
C0
C0
F0
E0
ENDCHAR
STARTCHAR idieresis
ENCODING 239
SWIDTH 286 0
DWIDTH 7 0
BBX 9 18 1 0
BITMAP
7380
F380
7380
0000
0000
0000
3800
3800
3800
3000
3000
6000
6000
E000
C000
C000
F000
E000
ENDCHAR
STARTCHAR eth
ENCODING 240
SWIDTH 524 0
DWIDTH 13 0
BBX 14 20 1 0
BITMAP
0080
00C0
0068
007C
01F0
03B0
0230
0070
07F0
1CE0
38E0
30E0
70E0
E0C0
E1C0
E180
C380
E700
EE00
7800
ENDCHAR
STARTCHAR ntilde
ENCODING 241
SWIDTH 561 0
DWIDTH 13 0
BBX 14 18 0 0
BITMAP
0184
03CC
06F8
0470
0000
0000
1C70
1CF0
1DB8
1B30
1E70
3C60
38E0
70C0
70C0
61C0
E0F0
C0E0
ENDCHAR
STARTCHAR ograve
ENCODING 242
SWIDTH 514 0
DWIDTH 12 0
BBX 11 19 1 0
BITMAP
0180
0380
0380
0380
0180
0080
0000
0780
1DC0
38C0
70E0
70C0
E0C0
E1C0
E1C0
C380
C700
EE00
7C00
ENDCHAR
STARTCHAR oacute
ENCODING 243
SWIDTH 514 0
DWIDTH 12 0
BBX 11 19 1 0
BITMAP
0040
0060
00E0
01C0
0180
0300
0000
0780
1DC0
38C0
70E0
70C0
E0C0
E1C0
E1C0
C380
C700
EE00
7C00
ENDCHAR
STARTCHAR ocircumflex
ENCODING 244
SWIDTH 514 0
DWIDTH 12 0
BBX 12 19 1 0
BITMAP
0040
00E0
01E0
0360
0E30
0810
0000
0780
1DC0
38C0
70E0
70C0
E0C0
E1C0
E1C0
C380
C700
EE00
7C00
ENDCHAR
STARTCHAR otilde
ENCODING 245
SWIDTH 514 0
DWIDTH 12 0
BBX 13 18 1 0
BITMAP
0388
07D8
0DF0
08E0
0000
0000
0780
1DC0
38C0
70E0
70C0
E0C0
E1C0
E1C0
C380
C700
EE00
7C00
ENDCHAR
STARTCHAR odieresis
ENCODING 246
SWIDTH 514 0
DWIDTH 12 0
BBX 13 18 1 0
BITMAP
0E38
0F78
0E38
0000
0000
0000
0780
1DC0
38C0
70E0
70C0
E0C0
E1C0
E1C0
C380
C700
EE00
7C00
ENDCHAR
STARTCHAR divide
ENCODING 247
SWIDTH 617 0
DWIDTH 15 0
BBX 12 12 2 3
BITMAP
0400
0F00
0E00
0400
0000
0000
FFF0
0000
0000
0E00
0E00
0E00
ENDCHAR
STARTCHAR oslash
ENCODING 248
SWIDTH 514 0
DWIDTH 12 0
BBX 12 16 1 -2
BITMAP
0070
00E0
07C0
1DC0
39C0
72E0
72C0
E4C0
E9C0
C9C0
D380
D700
EE00
7C00
C000
C000
ENDCHAR
STARTCHAR ugrave
ENCODING 249
SWIDTH 553 0
DWIDTH 13 0
BBX 12 19 1 0
BITMAP
0180
0380
0180
0180
0180
00C0
0000
3830
3870
3860
38E0
31C0
71C0
63C0
E780
C580
D980
F1E0
E1C0
ENDCHAR
STARTCHAR uacute
ENCODING 250
SWIDTH 553 0
DWIDTH 13 0
BBX 12 19 1 0
BITMAP
0060
0060
0060
00E0
01C0
0300
0000
3830
3870
3860
38E0
31C0
71C0
63C0
E780
C580
D980
F1E0
E1C0
ENDCHAR
STARTCHAR ucircumflex
ENCODING 251
SWIDTH 553 0
DWIDTH 13 0
BBX 13 19 1 0
BITMAP
0020
0060
00F0
03B0
0F38
0410
0000
3830
3870
3860
38E0
31C0
71C0
63C0
E780
C580
D980
F1E0
E1C0
ENDCHAR
STARTCHAR udieresis
ENCODING 252
SWIDTH 553 0
DWIDTH 13 0
BBX 13 18 1 0
BITMAP
0738
0F38
0738
0000
0000
0000
3830
3870
3860
38E0
31C0
71C0
63C0
E780
C580
D980
F1E0
E1C0
ENDCHAR
STARTCHAR yacute
ENCODING 253
SWIDTH 549 0
DWIDTH 13 0
BBX 12 25 1 -6
BITMAP
0040
00E0
00E0
01C0
0180
0300
0000
3830
3870
3870
38E0
30E0
71E0
63C0
E3C0
E580
CD80
FB80
E300
0300
0600
0E00
1C00
3800
7000
ENDCHAR
STARTCHAR thorn
ENCODING 254
SWIDTH 552 0
DWIDTH 13 0
BBX 14 26 -2 -6
BITMAP
00C0
00C0
01C0
01C0
0180
0180
0380
0300
0338
07DC
078C
070C
0E0C
0E1C
0C1C
1C18
1C38
1C70
3FE0
3B80
3000
7000
7000
6000
E000
C000
ENDCHAR
STARTCHAR ydieresis
ENCODING 255
SWIDTH 549 0
DWIDTH 13 0
BBX 13 24 1 -6
BITMAP
0E38
0E78
0E78
0000
0000
0000
3830
3870
3870
38E0
30E0
71E0
63C0
E3C0
E580
CD80
FB80
E300
0300
0600
0E00
1C00
3800
7000
ENDCHAR
STARTCHAR Amacron
ENCODING 256
SWIDTH 615 0
DWIDTH 15 0
BBX 20 22 -2 0
BITMAP
000FF0
001FE0
000000
000000
0003C0
000F80
001980
003380
006300
00C700
00C600
018E00
03FF80
0FFF80
0E0C00
061C00
0C1C00
1C1800
181800
381900
701F00
E00E00
ENDCHAR
STARTCHAR amacron
ENCODING 257
SWIDTH 543 0
DWIDTH 13 0
BBX 12 16 1 0
BITMAP
0FF0
0FF0
0000
0000
0730
1CF0
38E0
70E0
70C0
E1C0
E1C0
E380
C380
C580
EDE0
71E0
ENDCHAR
STARTCHAR Abreve
ENCODING 258
SWIDTH 615 0
DWIDTH 15 0
BBX 20 24 -2 0
BITMAP
000410
000630
000E60
0007C0
000000
000000
0003C0
000F80
001980
003380
006300
00C700
00C600
018E00
03FF80
0FFF80
0E0C00
061C00
0C1C00
1C1800
181800
381900
701F00
E00E00
ENDCHAR
STARTCHAR abreve
ENCODING 259
SWIDTH 543 0
DWIDTH 13 0
BBX 12 18 1 0
BITMAP
0610
0610
0720
03C0
0000
0000
0730
1CF0
38E0
70E0
70C0
E1C0
E1C0
E380
C380
C580
EDE0
71E0
ENDCHAR
STARTCHAR Aogonek
ENCODING 260
SWIDTH 615 0
DWIDTH 15 0
BBX 18 23 -2 -5
BITMAP
0003C0
000F80
001980
003380
006300
00C700
00C600
018E00
03FF80
0FFF80
0E0C00
0E1C00
0C1C00
1C1800
181800
381900
701F00
E00E00
001800
003000
003000
007400
007800
ENDCHAR
STARTCHAR aogonek
ENCODING 261
SWIDTH 541 0
DWIDTH 13 0
BBX 12 17 1 -5
BITMAP
0730
1CF0
38E0
70E0
70C0
E1C0
E1C0
E380
C380
C580
EDE0
71E0
0180
0300
0700
0740
0780
ENDCHAR
STARTCHAR Cacute
ENCODING 262
SWIDTH 533 0
DWIDTH 13 0
BBX 15 23 1 0
BITMAP
0006
000E
000C
0018
0000
00F0
03D8
0708
0E1C
1C18
3838
3878
70F0
7000
6000
E000
E000
E000
E000
E000
60C0
73C0
1F00
ENDCHAR
STARTCHAR cacute
ENCODING 263
SWIDTH 468 0
DWIDTH 11 0
BBX 12 19 1 0
BITMAP
0020
0070
0070
00E0
00C0
0180
0000
0780
1CC0
38C0
71C0
71C0
E380
E000
E000
C000
E100
E700
3C00
ENDCHAR
STARTCHAR Ccircumflex
ENCODING 264
SWIDTH 533 0
DWIDTH 13 0
BBX 15 23 1 0
BITMAP
000C
003C
007E
00C6
0000
00F0
03D8
0708
0E1C
1C18
3838
3878
70F0
7000
6000
E000
E000
E000
E000
E000
60C0
73C0
1F00
ENDCHAR
STARTCHAR ccircumflex
ENCODING 265
SWIDTH 468 0
DWIDTH 11 0
BBX 12 19 1 0
BITMAP
0040
00E0
01E0
0360
0E70
0820
0000
0780
1CC0
38C0
71C0
71C0
E380
E000
E000
C000
E100
E700
3C00
ENDCHAR
STARTCHAR Cdotaccent
ENCODING 266
SWIDTH 533 0
DWIDTH 13 0
BBX 14 23 1 0
BITMAP
0030
0078
0070
0020
0000
00F0
03D8
0708
0E1C
1C18
3838
3878
70F0
7000
6000
E000
E000
E000
E000
E000
60C0
73C0
1F00
ENDCHAR
STARTCHAR cdotaccent
ENCODING 267
SWIDTH 468 0
DWIDTH 11 0
BBX 10 18 1 0
BITMAP
01C0
03C0
01C0
0000
0000
0000
0780
1CC0
38C0
71C0
71C0
E380
E000
E000
C000
E100
E700
3C00
ENDCHAR
STARTCHAR Ccaron
ENCODING 268
SWIDTH 533 0
DWIDTH 13 0
BBX 16 23 1 0
BITMAP
00E1
0077
007E
0030
0000
00F0
03D8
0708
0E1C
1C18
3838
3878
70F0
7000
6000
E000
E000
E000
E000
E000
60C0
73C0
1F00
ENDCHAR
STARTCHAR ccaron
ENCODING 269
SWIDTH 468 0
DWIDTH 11 0
BBX 13 18 1 0
BITMAP
0608
0318
0370
03C0
0100
0000
0780
1CC0
38C0
71C0
71C0
E380
E000
E000
C000
E100
E700
3C00
ENDCHAR
STARTCHAR Dcaron
ENCODING 270
SWIDTH 630 0
DWIDTH 15 0
BBX 15 23 1 0
BITMAP
01C2
00CE
00F8
0060
0000
1FE0
7C78
301C
060C
0E0C
1E0E
1C0E
380C
381C
381C
7018
7038
6070
E0E0
E1C0
E380
EF00
7C00
ENDCHAR
STARTCHAR dcaron
ENCODING 271
SWIDTH 557 0
DWIDTH 13 0
BBX 19 20 1 0
BITMAP
000440
000EE0
001CE0
001CC0
0018C0
003980
003900
003000
07F000
0EF000
186000
30E000
70E000
60C000
E1C000
E1C000
E3C000
E78000
EDF000
78E000
ENDCHAR
STARTCHAR Dcroat
ENCODING 272
SWIDTH 630 0
DWIDTH 15 0
BBX 14 18 1 0
BITMAP
1FC0
7C70
3018
061C
0E0C
1C0C
1C0C
FF8C
FF1C
301C
7038
7038
6070
E0E0
E1C0
E380
EF00
7C00
ENDCHAR
STARTCHAR dcroat
ENCODING 273
SWIDTH 557 0
DWIDTH 13 0
BBX 15 20 1 0
BITMAP
0004
000E
001C
01FE
01FC
0038
0030
0030
07F0
0EE0
1860
30E0
70E0
60C0
E1C0
E1C0
E3C0
E780
EDF0
78E0
ENDCHAR
STARTCHAR Emacron
ENCODING 274
SWIDTH 509 0
DWIDTH 12 0
BBX 14 22 1 0
BITMAP
03FC
07F8
0000
0000
01F0
0798
0E18
1C18
3838
38F0
30E0
3000
3800
1F00
1F00
7800
7000
E000
E080
E180
6780
3E00
ENDCHAR
STARTCHAR emacron
ENCODING 275
SWIDTH 471 0
DWIDTH 11 0
BBX 11 16 1 0
BITMAP
1FE0
1FE0
0000
0000
0780
1DC0
38C0
31C0
71C0
E380
EF00
F800
E000
E180
7700
3E00
ENDCHAR
STARTCHAR Ebreve
ENCODING 276
SWIDTH 509 0
DWIDTH 12 0
BBX 14 24 1 0
BITMAP
0084
0184
0188
01F0
0000
0000
01F0
0798
0E18
1C18
3838
38F0
30E0
3000
3800
1F00
1F00
7800
7000
E000
E080
E180
6780
3E00
ENDCHAR
STARTCHAR ebreve
ENCODING 277
SWIDTH 471 0
DWIDTH 11 0
BBX 11 18 1 0
BITMAP
0420
0C20
0E60
0780
0000
0000
0780
1DC0
38C0
31C0
71C0
E380
EF00
F800
E000
E180
7700
3E00
ENDCHAR
STARTCHAR Edotaccent
ENCODING 278
SWIDTH 509 0
DWIDTH 12 0
BBX 13 23 1 0
BITMAP
00E0
01E0
01E0
0080
0000
01F0
0798
0E18
1C18
3838
38F0
30E0
3000
3800
1F00
1F00
7800
7000
E000
E080
E180
6780
3E00
ENDCHAR
STARTCHAR edotaccent
ENCODING 279
SWIDTH 471 0
DWIDTH 11 0
BBX 10 18 1 0
BITMAP
0380
0380
0380
0000
0000
0000
0780
1DC0
38C0
31C0
71C0
E380
EF00
F800
E000
E180
7700
3E00
ENDCHAR
STARTCHAR Eogonek
ENCODING 280
SWIDTH 509 0
DWIDTH 12 0
BBX 13 23 1 -5
BITMAP
01F0
0798
0E18
1C18
3838
38F0
30E0
3000
3800
1F00
1F00
7800
7000
E000
E080
E180
6780
3E00
0C00
1800
3000
7000
3C00
ENDCHAR
STARTCHAR eogonek
ENCODING 281
SWIDTH 471 0
DWIDTH 11 0
BBX 10 17 1 -5
BITMAP
0780
1DC0
38C0
31C0
71C0
E380
EF00
FC00
E000
E180
7700
3E00
0C00
1800
3000
3000
3C00
ENDCHAR
STARTCHAR Ecaron
ENCODING 282
SWIDTH 509 0
DWIDTH 12 0
BBX 14 23 1 0
BITMAP
0384
01DC
00F8
00C0
0000
01F0
0798
0E18
1C18
3838
38F0
30E0
3000
3800
1F00
1F00
7800
7000
E000
E080
E180
6780
3E00
ENDCHAR
STARTCHAR ecaron
ENCODING 283
SWIDTH 471 0
DWIDTH 11 0
BBX 12 18 1 0
BITMAP
0E10
0630
06E0
0780
0200
0000
0780
1DC0
38C0
31C0
71C0
E380
EF00
F800
E000
E180
7700
3E00
ENDCHAR
STARTCHAR Gcircumflex
ENCODING 284
SWIDTH 598 0
DWIDTH 14 0
BBX 15 23 1 0
BITMAP
000C
003C
007E
00C6
0000
00F0
03D8
070C
0E1C
1C18
3838
3870
7070
7000
7000
E1F8
E1F8
E0F0
E0C0
E0C0
6180
7B00
1E00
ENDCHAR
STARTCHAR gcircumflex
ENCODING 285
SWIDTH 526 0
DWIDTH 13 0
BBX 12 26 1 -7
BITMAP
0040
00E0
01E0
0360
0E70
0810
0000
0780
1DF0
38E0
70E0
70E0
E0C0
E1C0
E1C0
E380
E780
EF80
7B00
0300
0700
0600
0C00
1C00
7800
6000
ENDCHAR
STARTCHAR Gbreve
ENCODING 286
SWIDTH 598 0
DWIDTH 14 0
BBX 16 24 1 0
BITMAP
0041
0063
0066
007C
0000
0000
00F0
03D8
070C
0E1C
1C18
3838
3870
7070
7000
7000
E1F8
E1F8
E0F0
E0C0
E0C0
6180
7B00
1E00
ENDCHAR
STARTCHAR gbreve
ENCODING 287
SWIDTH 526 0
DWIDTH 13 0
BBX 12 25 1 -7
BITMAP
0210
0610
0730
03C0
0000
0000
0780
1DF0
38E0
70E0
70E0
E0C0
E1C0
E1C0
E380
E780
EF80
7B00
0300
0700
0600
0C00
1C00
7800
6000
ENDCHAR
STARTCHAR Gdotaccent
ENCODING 288
SWIDTH 598 0
DWIDTH 14 0
BBX 14 23 1 0
BITMAP
0030
0078
0070
0020
0000
00F0
03D8
070C
0E1C
1C18
3838
3870
7070
7000
7000
E1F8
E1F8
E0F0
E0C0
E0C0
6180
7B00
1E00
ENDCHAR
STARTCHAR gdotaccent
ENCODING 289
SWIDTH 526 0
DWIDTH 13 0
BBX 12 25 1 -7
BITMAP
01C0
01C0
01C0
0000
0000
0000
0780
1DF0
38E0
70E0
70E0
E0C0
E1C0
E1C0
E380
E780
EF80
7B00
0300
0700
0600
0C00
1C00
7800
6000
ENDCHAR
STARTCHAR Gcommaaccent
ENCODING 290
SWIDTH 598 0
DWIDTH 14 0
BBX 14 24 1 -6
BITMAP
00F0
03D8
070C
0E1C
1C18
3838
3870
7070
7000
7000
E1F8
E1F8
E0F0
E0C0
E0C0
6180
7B00
3E00
0000
3000
3800
3000
3000
6000
ENDCHAR
STARTCHAR gcommaaccent
ENCODING 291
SWIDTH 526 0
DWIDTH 13 0
BBX 12 26 1 -7
BITMAP
0060
00C0
0180
01C0
01C0
0000
0000
0780
1DF0
38E0
70E0
70E0
E0C0
E1C0
E1C0
E380
E780
EF80
7B00
0300
0700
0600
0C00
1C00
7800
6000
ENDCHAR
STARTCHAR Hcircumflex
ENCODING 292
SWIDTH 668 0
DWIDTH 16 0
BBX 18 23 -1 0
BITMAP
000C00
001E00
007600
00E300
000000
0F00C0
1F81C0
0381C0
038180
038380
030380
070300
070300
0FFF80
1E0700
0E0E00
0C0C00
1C0C00
181C00
381800
301800
601E00
C01C00
ENDCHAR
STARTCHAR hcircumflex
ENCODING 293
SWIDTH 555 0
DWIDTH 13 0
BBX 12 23 0 0
BITMAP
0080
03C0
07C0
1CC0
38E0
0600
0700
0700
0600
0E00
0E00
0C70
0CF0
1DB0
1B30
1E70
3C60
38E0
70C0
71C0
61C0
E1F0
C0E0
ENDCHAR
STARTCHAR Hbar
ENCODING 294
SWIDTH 668 0
DWIDTH 16 0
BBX 20 18 -1 0
BITMAP
0F00C0
1F81C0
0381C0
038180
07FFF0
3FFFE0
070300
070300
07FF80
1E0700
0E0E00
0C0C00
1C0C00
181C00
381800
301800
601E00
C01C00
ENDCHAR
STARTCHAR hbar
ENCODING 295
SWIDTH 555 0
DWIDTH 13 0
BBX 12 20 0 0
BITMAP
0200
0300
0700
1FE0
0600
0600
0E00
0E00
0C70
0CF0
1DB0
1B70
1E70
3C60
38E0
70C0
71C0
E1C0
E1F0
C0E0
ENDCHAR
STARTCHAR Itilde
ENCODING 296
SWIDTH 327 0
DWIDTH 8 0
BBX 12 23 0 0
BITMAP
0710
0F90
1BE0
11C0
0000
1F00
3B00
0300
0700
0700
0700
0700
0E00
0E00
0E00
0C00
1C00
1800
3800
3000
7000
E000
C000
ENDCHAR
STARTCHAR itilde
ENCODING 297
SWIDTH 286 0
DWIDTH 7 0
BBX 9 18 1 0
BITMAP
3880
7C80
4F80
8E00
0000
0000
3800
3800
3800
3000
3000
6000
6000
E000
C000
C000
F000
E000
ENDCHAR
STARTCHAR Imacron
ENCODING 298
SWIDTH 327 0
DWIDTH 8 0
BBX 12 22 0 0
BITMAP
0FF0
1FE0
0000
0000
1F00
3B00
0300
0700
0700
0700
0700
0E00
0E00
0E00
0C00
1C00
1800
3800
3000
7000
E000
C000
ENDCHAR
STARTCHAR imacron
ENCODING 299
SWIDTH 286 0
DWIDTH 7 0
BBX 9 16 1 0
BITMAP
7F80
FF00
0000
0000
3800
3800
3800
3000
3000
6000
6000
E000
C000
C000
F000
E000
ENDCHAR
STARTCHAR Ibreve
ENCODING 300
SWIDTH 327 0
DWIDTH 8 0
BBX 12 24 0 0
BITMAP
0410
0630
0E60
07C0
0000
0000
1F00
3B00
0300
0700
0700
0700
0700
0E00
0E00
0E00
0C00
1C00
1800
3800
3000
7000
E000
C000
ENDCHAR
STARTCHAR ibreve
ENCODING 301
SWIDTH 286 0
DWIDTH 7 0
BBX 9 18 1 0
BITMAP
3080
3180
3300
3E00
0000
0000
3800
3800
3800
3000
3000
6000
6000
E000
C000
C000
F000
E000
ENDCHAR
STARTCHAR Iogonek
ENCODING 302
SWIDTH 327 0
DWIDTH 8 0
BBX 11 23 -3 -5
BITMAP
03C0
0760
0060
00E0
00E0
00E0
00E0
01C0
01C0
01C0
0180
0380
0300
0700
0600
0E00
1C00
1800
3000
6000
C000
C000
F000
ENDCHAR
STARTCHAR iogonek
ENCODING 303
SWIDTH 297 0
DWIDTH 7 0
BBX 9 23 -1 -5
BITMAP
0380
0780
0380
0200
0000
0000
0E00
0E00
0E00
0E00
0C00
1C00
1800
1800
3800
3000
3C00
3C00
1000
7000
6000
E800
7000
ENDCHAR
STARTCHAR Idotaccent
ENCODING 304
SWIDTH 327 0
DWIDTH 8 0
BBX 9 23 0 0
BITMAP
0300
0780
0700
0200
0000
1F00
3B00
0300
0700
0700
0700
0700
0E00
0E00
0E00
0C00
1C00
1800
3800
3000
7000
E000
C000
ENDCHAR
STARTCHAR dotlessi
ENCODING 305
SWIDTH 286 0
DWIDTH 7 0
BBX 5 12 1 0
BITMAP
38
38
38
30
30
60
60
E0
C0
C0
F0
E0
ENDCHAR
STARTCHAR IJ
ENCODING 306
SWIDTH 720 0
DWIDTH 17 0
BBX 18 24 0 -6
BITMAP
1F0F80
3B3DC0
0379C0
0721C0
0701C0
070180
070380
0E0380
0E0380
0E0700
0C0700
1C0E00
180E00
380E00
301C00
701C00
E03800
C07000
007000
00E000
01C000
038000
070000
0E0000
ENDCHAR
STARTCHAR ij
ENCODING 307
SWIDTH 567 0
DWIDTH 14 0
BBX 13 24 1 -6
BITMAP
0C38
1E78
1C38
0820
0000
0000
38F0
3870
3870
3060
3060
60E0
60E0
E0C0
C0C0
C1C0
F180
E380
0300
0700
0600
0C00
1800
3000
ENDCHAR
STARTCHAR Jcircumflex
ENCODING 308
SWIDTH 393 0
DWIDTH 9 0
BBX 17 30 -4 -6
BITMAP
000400
000E00
001F00
007380
004100
000000
00F800
03DC00
079C00
031C00
001C00
001C00
003800
003800
003800
007000
007000
007000
00E000
00E000
01C000
01C000
038000
038000
070000
0E0000
0C0000
1C0000
700000
E00000
ENDCHAR
STARTCHAR jcircumflex
ENCODING 309
SWIDTH 282 0
DWIDTH 7 0
BBX 13 25 -4 -6
BITMAP
0030
0070
01F0
03B8
0618
0000
0000
03C0
01C0
01C0
01C0
0180
0180
0380
0380
0300
0700
0600
0E00
0C00
1C00
1800
3000
6000
C000
ENDCHAR
STARTCHAR Kcommaaccent
ENCODING 310
SWIDTH 616 0
DWIDTH 15 0
BBX 17 24 -1 -6
BITMAP
1F0700
1B0300
038380
030300
070700
070E00
071C00
073800
0E7000
0EC000
0F8000
1DC000
1CE000
38E000
387000
707800
E03D00
C01E00
000000
060000
0E0000
060000
0C0000
180000
ENDCHAR
STARTCHAR kcommaaccent
ENCODING 311
SWIDTH 497 0
DWIDTH 12 0
BBX 12 26 0 -6
BITMAP
0200
0300
0700
0700
0700
0600
0600
0E00
0C70
0C70
1C70
18E0
19C0
3700
3E00
7600
7700
6780
E3E0
C1C0
0000
3800
3800
1800
3000
6000
ENDCHAR
STARTCHAR kgreenlandic
ENCODING 312
SWIDTH 497 0
DWIDTH 12 0
BBX 12 12 0 0
BITMAP
1C70
1C70
1C70
18F0
19C0
3F80
3E00
7600
7700
6380
E3E0
C1C0
ENDCHAR
STARTCHAR Lacute
ENCODING 313
SWIDTH 517 0
DWIDTH 12 0
BBX 16 23 -1 0
BITMAP
0006
0007
000E
0018
0000
0078
00EC
01C4
038E
038C
071C
073C
0678
0E70
0E00
1C00
1C00
1800
3800
3000
77E0
FFF0
7830
ENDCHAR
STARTCHAR lacute
ENCODING 314
SWIDTH 279 0
DWIDTH 7 0
BBX 10 23 1 0
BITMAP
01C0
01C0
0380
0700
0000
0C00
0C00
0C00
1C00
1C00
1800
1800
3800
3000
7000
7000
6000
E000
E000
C000
C000
F000
E000
ENDCHAR
STARTCHAR Lcommaaccent
ENCODING 315
SWIDTH 517 0
DWIDTH 12 0
BBX 15 24 -1 -6
BITMAP
0078
00EC
01C4
038E
038C
071C
073C
0678
0E70
0E00
1C00
1C00
1800
3800
3000
77E0
FFF0
7830
0000
1800
3C00
1800
1800
2000
ENDCHAR
STARTCHAR lcommaaccent
ENCODING 316
SWIDTH 279 0
DWIDTH 7 0
BBX 8 26 0 -6
BITMAP
02
07
07
06
06
0E
0E
0C
1C
1C
18
38
38
30
70
70
60
64
78
70
00
60
70
60
60
C0
ENDCHAR
STARTCHAR Lcaron
ENCODING 317
SWIDTH 517 0
DWIDTH 12 0
BBX 19 23 -1 0
BITMAP
000040
0000E0
000060
000060
0000C0
007880
00ED00
01C400
038E00
038C00
071C00
073C00
067800
0E7000
0E0000
1C0000
1C0000
180000
380000
300000
77E000
FFF000
783000
ENDCHAR
STARTCHAR lcaron
ENCODING 318
SWIDTH 467 0
DWIDTH 11 0
BBX 12 20 1 0
BITMAP
0420
0E70
0E30
0C30
0C60
1C60
1C80
1800
3800
3800
3000
7000
7000
6000
E000
E000
C000
C800
F000
E000
ENDCHAR
STARTCHAR Ldot
ENCODING 319
SWIDTH 668 0
DWIDTH 16 0
BBX 17 18 -1 0
BITMAP
007800
00EC00
01C400
038E00
038C00
071C00
073C00
067800
0E7000
0E0380
1C0380
1C0380
180000
380000
300000
77E000
FFF000
783000
ENDCHAR
STARTCHAR ldot
ENCODING 320
SWIDTH 489 0
DWIDTH 12 0
BBX 11 20 1 0
BITMAP
0400
0E00
0E00
0C00
0C00
1C00
1C00
1800
3800
3800
31C0
71E0
71C0
6080
E000
E000
C000
C800
F000
E000
ENDCHAR
STARTCHAR Lslash
ENCODING 321
SWIDTH 517 0
DWIDTH 12 0
BBX 15 18 -1 0
BITMAP
0078
00EC
01C4
0386
038C
071C
071C
0778
0E70
0E00
1F80
7F80
5C00
3800
3000
71E0
FFF0
7830
ENDCHAR
STARTCHAR lslash
ENCODING 322
SWIDTH 279 0
DWIDTH 7 0
BBX 10 20 1 0
BITMAP
1800
1FC0
0E00
0C00
0C00
1C00
1800
1800
3800
3000
3000
7000
7000
6000
E000
E000
C000
C000
F000
6000
ENDCHAR
STARTCHAR Nacute
ENCODING 323
SWIDTH 708 0
DWIDTH 17 0
BBX 19 23 0 0
BITMAP
0000C0
0001C0
000380
000700
000000
00C1C0
01C1C0
03C0E0
07C0E0
0FC0C0
0DC1C0
1DC1C0
19C180
19C380
30C300
30E600
70E600
60E400
60EC00
607800
607800
E03800
401800
ENDCHAR
STARTCHAR nacute
ENCODING 324
SWIDTH 561 0
DWIDTH 13 0
BBX 13 19 0 0
BITMAP
0010
0038
0030
0070
00E0
0180
0000
1C70
1CF0
1DB8
1B30
1E70
3C60
38E0
70C0
70C0
61C0
E0F0
C0E0
ENDCHAR
STARTCHAR Ncommaaccent
ENCODING 325
SWIDTH 708 0
DWIDTH 17 0
BBX 19 24 0 -6
BITMAP
00C1C0
01C1C0
03C0E0
07C0E0
0FC0C0
0DC1C0
1DC1C0
19C180
19C380
30C300
30E600
70E600
60E400
60EC00
607800
607800
E03800
401800
000000
030000
038000
030000
030000
060000
ENDCHAR
STARTCHAR ncommaaccent
ENCODING 326
SWIDTH 561 0
DWIDTH 13 0
BBX 13 18 0 -6
BITMAP
1C70
1CF0
1DB8
1B30
1E70
3C60
38E0
70C0
70C0
61C0
E0F0
C0E0
0000
1800
3C00
1800
1800
2000
ENDCHAR
STARTCHAR Ncaron
ENCODING 327
SWIDTH 708 0
DWIDTH 17 0
BBX 19 23 0 0
BITMAP
001C20
001CE0
000F80
000600
000000
00C1C0
01C1C0
03C0E0
07C0E0
0FC0C0
0DC1C0
1DC1C0
19C180
19C380
30C300
30E600
70E600
60E400
60EC00
607800
607800
E03800
401800
ENDCHAR
STARTCHAR ncaron
ENCODING 328
SWIDTH 561 0
DWIDTH 13 0
BBX 14 18 0 0
BITMAP
0304
018C
01B8
01F0
0080
0000
1C70
1CF0
1DB8
1B30
1E70
3C60
38E0
70C0
70C0
61C0
E0F0
C0E0
ENDCHAR
STARTCHAR Eng
ENCODING 330
SWIDTH 698 0
DWIDTH 17 0
BBX 18 24 0 -6
BITMAP
01C180
03C3C0
07C1C0
07C1C0
0DC1C0
0DC1C0
19C1C0
19C180
31C180
31C380
31C300
60C300
60E600
60E600
E07C00
C07C00
C03800
403000
007000
00E000
01C000
038000
070000
0C0000
ENDCHAR
STARTCHAR eng
ENCODING 331
SWIDTH 561 0
DWIDTH 13 0
BBX 13 18 0 -6
BITMAP
1C70
1CF8
1DB0
1B30
1E30
3C70
3860
7060
70E0
60C0
E1C0
C180
0380
0300
0600
0E00
1C00
3000
ENDCHAR
STARTCHAR Omacron
ENCODING 332
SWIDTH 655 0
DWIDTH 16 0
BBX 16 22 1 0
BITMAP
00FF
00FE
0000
0000
00F8
03DC
070E
0E06
1C06
1C06
380E
380E
700E
701C
601C
6038
E038
E070
60E0
61C0
3380
1E00
ENDCHAR
STARTCHAR omacron
ENCODING 333
SWIDTH 514 0
DWIDTH 12 0
BBX 12 16 1 0
BITMAP
07F0
0FF0
0000
0000
0780
1DC0
38C0
70E0
70C0
E0C0
E1C0
E1C0
C380
C700
EE00
7C00
ENDCHAR
STARTCHAR Obreve
ENCODING 334
SWIDTH 655 0
DWIDTH 16 0
BBX 16 24 1 0
BITMAP
0021
0061
0063
007C
0000
0000
00F8
03DC
070E
0E06
1C06
1C06
380E
380E
700E
701C
601C
6038
E038
E070
60E0
61C0
3380
1E00
ENDCHAR
STARTCHAR obreve
ENCODING 335
SWIDTH 514 0
DWIDTH 12 0
BBX 13 18 1 0
BITMAP
0208
0610
0730
03E0
0000
0000
0780
1DC0
38C0
70E0
70C0
E0C0
E1C0
E1C0
C380
C700
EE00
7C00
ENDCHAR
STARTCHAR Ohungarumlaut
ENCODING 336
SWIDTH 655 0
DWIDTH 16 0
BBX 17 23 1 0
BITMAP
003180
003300
007300
00C600
000000
00F800
03DC00
070E00
0E0600
1C0600
1C0600
380E00
380E00
700E00
701C00
601C00
603800
E03800
E07000
60E000
61C000
338000
1E0000
ENDCHAR
STARTCHAR ohungarumlaut
ENCODING 337
SWIDTH 514 0
DWIDTH 12 0
BBX 13 19 1 0
BITMAP
0110
0198
0338
0330
0660
0CC0
0000
0780
1DC0
38C0
70E0
70C0
E0C0
E1C0
E1C0
C380
C700
EE00
7C00
ENDCHAR
STARTCHAR OE
ENCODING 338
SWIDTH 900 0
DWIDTH 22 0
BBX 22 18 3 0
BITMAP
01F1F0
07BFD8
0E1F0C
1C1E1C
381C38
383878
703870
703800
E01800
E01F80
E01F00
C03C00
C07000
C07000
C0E040
C1E0C0
67F380
3E3E00
ENDCHAR
STARTCHAR oe
ENCODING 339
SWIDTH 777 0
DWIDTH 19 0
BBX 18 12 1 0
BITMAP
078780
0EDD80
1CF9C0
38F1C0
70F180
70E380
60EF00
E1FC00
E1C000
63E100
7FE700
3E7E00
ENDCHAR
STARTCHAR Racute
ENCODING 340
SWIDTH 623 0
DWIDTH 15 0
BBX 16 23 -1 0
BITMAP
0006
0006
000E
0018
0000
03F8
0F8E
0E07
0183
0387
0387
0707
070E
073C
0EF8
0FE0
0CC0
1CE0
1860
3870
3038
703D
E01E
ENDCHAR
STARTCHAR racute
ENCODING 341
SWIDTH 407 0
DWIDTH 10 0
BBX 11 19 0 0
BITMAP
0040
0060
00E0
00C0
0180
0300
0000
38E0
1DE0
1BC0
1A00
1C00
3800
3800
3000
7000
6000
E000
6000
ENDCHAR
STARTCHAR Rcommaaccent
ENCODING 342
SWIDTH 623 0
DWIDTH 15 0
BBX 16 24 -1 -6
BITMAP
03F8
0F8E
0E07
0183
0387
0387
0707
070E
073C
0EF8
0FE0
0CC0
1CE0
1860
3870
3038
703D
E01E
0000
0E00
0E00
0E00
0C00
1800
ENDCHAR
STARTCHAR rcommaaccent
ENCODING 343
SWIDTH 407 0
DWIDTH 10 0
BBX 12 18 -1 -6
BITMAP
1C70
0EF0
0DE0
0D00
0E00
1C00
1C00
1800
3800
3000
7000
3000
0000
6000
E000
6000
C000
8000
ENDCHAR
STARTCHAR Rcaron
ENCODING 344
SWIDTH 623 0
DWIDTH 15 0
BBX 16 23 -1 0
BITMAP
00E1
0077
003E
0030
0000
03F8
0F8E
0E07
0183
0387
0387
0707
070E
073C
0EF8
0FE0
0CC0
1CE0
1860
3870
3038
703D
E01E
ENDCHAR
STARTCHAR rcaron
ENCODING 345
SWIDTH 407 0
DWIDTH 10 0
BBX 13 18 0 0
BITMAP
0608
0738
0370
03C0
0300
0000
38E0
1DE0
1BC0
1A00
1C00
3800
3800
3000
7000
6000
E000
6000
ENDCHAR
STARTCHAR Sacute
ENCODING 346
SWIDTH 474 0
DWIDTH 11 0
BBX 13 23 1 0
BITMAP
0018
0018
0038
0060
0000
03C0
0F60
1C30
3830
3830
3070
30F0
39E0
3880
3C00
1E00
0E00
0700
C700
C700
C600
EE00
7800
ENDCHAR
STARTCHAR sacute
ENCODING 347
SWIDTH 423 0
DWIDTH 10 0
BBX 11 19 0 0
BITMAP
0060
0060
00E0
00E0
01C0
0300
0000
0F80
1DC0
38C0
38C0
3800
1C00
1E00
0E00
4700
C600
FE00
7C00
ENDCHAR
STARTCHAR Scircumflex
ENCODING 348
SWIDTH 474 0
DWIDTH 11 0
BBX 14 23 1 0
BITMAP
0030
0070
01F8
031C
0000
03C0
0F60
1C30
3830
3830
3070
30F0
39E0
3880
3C00
1E00
0E00
0700
C700
C700
C600
EE00
7800
ENDCHAR
STARTCHAR scircumflex
ENCODING 349
SWIDTH 423 0
DWIDTH 10 0
BBX 12 19 0 0
BITMAP
0040
00E0
01E0
0360
0E70
0820
0000
0F80
1DC0
38C0
38C0
3800
1C00
1E00
0E00
4700
C600
FE00
7C00
ENDCHAR
STARTCHAR Scedilla
ENCODING 350
SWIDTH 474 0
DWIDTH 11 0
BBX 12 23 1 -5
BITMAP
03C0
0F60
1C30
3830
3830
3870
30F0
39E0
3800
3C00
1E00
0E00
0700
C700
C700
C600
FE00
7800
3000
3000
3000
7000
E000
ENDCHAR
STARTCHAR scedilla
ENCODING 351
SWIDTH 423 0
DWIDTH 10 0
BBX 10 17 0 -5
BITMAP
0F80
1DC0
38C0
38C0
3800
1C00
1E00
0E00
4700
C700
6E00
3C00
1000
1000
3000
F000
6000
ENDCHAR
STARTCHAR Scaron
ENCODING 352
SWIDTH 474 0
DWIDTH 11 0
BBX 14 23 1 0
BITMAP
0384
01DC
00F8
00C0
0000
03C0
0F60
1C30
3830
3830
3070
30F0
39E0
3880
3C00
1E00
0E00
0700
C700
C700
C600
EE00
7800
ENDCHAR
STARTCHAR scaron
ENCODING 353
SWIDTH 423 0
DWIDTH 10 0
BBX 13 18 0 0
BITMAP
0608
0318
0370
03C0
0100
0000
0F80
1DC0
38C0
38C0
3800
1C00
1E00
0E00
4700
C600
FE00
7C00
ENDCHAR
STARTCHAR Tcommaaccent
ENCODING 354
SWIDTH 471 0
DWIDTH 11 0
BBX 14 24 1 -6
BITMAP
3F04
7FFC
71F8
6380
4380
0300
0700
0700
0700
0E00
0E00
0E00
0C00
1C00
1800
3800
7000
E000
0000
7000
7000
3000
6000
C000
ENDCHAR
STARTCHAR tcommaaccent
ENCODING 355
SWIDTH 358 0
DWIDTH 9 0
BBX 9 22 0 -6
BITMAP
0200
0600
0E00
0E00
3F80
1C00
1800
3800
3800
3000
3000
7000
7000
7200
7E00
3C00
0000
7000
7000
7000
6000
C000
ENDCHAR
STARTCHAR Tcaron
ENCODING 356
SWIDTH 471 0
DWIDTH 11 0
BBX 15 23 1 0
BITMAP
01C2
01CE
00F8
0060
0000
3F04
7FFC
71F8
6380
4380
0300
0700
0700
0700
0E00
0E00
0E00
0C00
1C00
1800
3800
7000
E000
ENDCHAR
STARTCHAR tcaron
ENCODING 357
SWIDTH 497 0
DWIDTH 12 0
BBX 12 20 2 0
BITMAP
0010
0030
0030
0030
0020
0C60
0C80
1C00
7F00
3800
3000
7000
7000
6000
6000
E000
E000
E400
FC00
7800
ENDCHAR
STARTCHAR Tbar
ENCODING 358
SWIDTH 471 0
DWIDTH 11 0
BBX 14 18 1 0
BITMAP
3F04
7FFC
71F8
6380
4380
0300
0700
0700
7FC0
0E00
0E00
0C00
1C00
1C00
1800
3800
7000
E000
ENDCHAR
STARTCHAR tbar
ENCODING 359
SWIDTH 358 0
DWIDTH 9 0
BBX 9 15 0 0
BITMAP
0600
0600
0E00
3F80
1C00
1800
3800
FF80
3000
3000
7000
7000
7200
7E00
3C00
ENDCHAR
STARTCHAR Utilde
ENCODING 360
SWIDTH 624 0
DWIDTH 15 0
BBX 17 23 0 0
BITMAP
007100
00F900
019E00
011C00
000000
0F0300
070380
070700
070700
060E00
0E0E00
0C1C00
1C1C00
183C00
383800
387800
70F800
70B000
61B000
633000
E63200
7C3C00
783800
ENDCHAR
STARTCHAR utilde
ENCODING 361
SWIDTH 553 0
DWIDTH 13 0
BBX 14 18 1 0
BITMAP
0384
07C8
04F8
0C70
0000
0000
3830
3870
3860
38E0
31C0
71C0
63C0
E780
C580
D980
F1E0
E1C0
ENDCHAR
STARTCHAR Umacron
ENCODING 362
SWIDTH 624 0
DWIDTH 15 0
BBX 17 22 0 0
BITMAP
00FF00
01FE00
000000
000000
0F0300
070380
070700
070700
060E00
0E0E00
0C1C00
1C1C00
183C00
383800
387800
70F800
70B000
61B000
633000
E63200
7C3C00
783800
ENDCHAR
STARTCHAR umacron
ENCODING 363
SWIDTH 553 0
DWIDTH 13 0
BBX 13 16 1 0
BITMAP
07F8
0FF0
0000
0000
3830
3870
3860
38E0
31C0
71C0
63C0
E780
C580
D980
F1E0
E1C0
ENDCHAR
STARTCHAR Ubreve
ENCODING 364
SWIDTH 624 0
DWIDTH 15 0
BBX 17 24 0 0
BITMAP
004100
006300
00E600
007C00
000000
000000
0F0300
070380
070700
070700
060E00
0E0E00
0C1C00
1C1C00
183C00
383800
387800
70F800
70B000
61B000
633000
E63200
7C3C00
783800
ENDCHAR
STARTCHAR ubreve
ENCODING 365
SWIDTH 553 0
DWIDTH 13 0
BBX 13 18 1 0
BITMAP
0308
0318
0330
03E0
0000
0000
3830
3870
3860
38E0
31C0
71C0
63C0
E780
C580
D980
F1E0
E1C0
ENDCHAR
STARTCHAR Uring
ENCODING 366
SWIDTH 624 0
DWIDTH 15 0
BBX 17 23 0 0
BITMAP
003C00
007600
006600
006600
006E00
0F7F00
070380
070700
070700
060E00
0E0E00
0C1C00
1C1C00
183C00
383800
387800
70F800
70F000
61B000
633000
E63200
7C3C00
783C00
ENDCHAR
STARTCHAR uring
ENCODING 367
SWIDTH 553 0
DWIDTH 13 0
BBX 12 19 1 0
BITMAP
00E0
03B0
0330
0330
03E0
0000
0000
3830
3870
3860
38E0
31C0
71C0
63C0
E780
C580
D980
F1E0
E1C0
ENDCHAR
STARTCHAR Uhungarumlaut
ENCODING 368
SWIDTH 624 0
DWIDTH 15 0
BBX 17 23 0 0
BITMAP
003300
003300
006600
00CC00
000000
0F0300
070380
070700
070700
060E00
0E0E00
0C1C00
1C1C00
183C00
383800
387800
70F800
70B000
61B000
633000
E63200
7C3C00
783800
ENDCHAR
STARTCHAR uhungarumlaut
ENCODING 369
SWIDTH 553 0
DWIDTH 13 0
BBX 13 19 1 0
BITMAP
0088
0198
0198
0338
0670
0CC0
0000
3830
3870
3860
38E0
31C0
71C0
63C0
E780
C580
D980
F1E0
E1C0
ENDCHAR
STARTCHAR Uogonek
ENCODING 370
SWIDTH 684 0
DWIDTH 16 0
BBX 16 23 1 -5
BITMAP
0E03
0703
0707
060E
0E0E
0E1C
1C1C
1C3C
3838
3878
3078
70F0
61B0
6130
E370
E670
FC7C
7038
0030
0060
00E0
00C0
00F0
ENDCHAR
STARTCHAR uogonek
ENCODING 371
SWIDTH 553 0
DWIDTH 13 0
BBX 12 17 1 -5
BITMAP
3830
3870
3860
38E0
31C0
71C0
63C0
E780
C580
D980
F1E0
E1C0
0180
0300
0700
0700
0780
ENDCHAR
STARTCHAR Wcircumflex
ENCODING 372
SWIDTH 941 0
DWIDTH 23 0
BBX 22 23 2 0
BITMAP
000300
000F00
001F80
003180
000000
380018
FC003C
EE001C
0E001C
1C0E1C
1C3C1C
38781C
38F818
71F038
71F038
636030
E66070
E6E060
CCE0C0
D8E180
D0E300
F06E00
603C00
ENDCHAR
STARTCHAR wcircumflex
ENCODING 373
SWIDTH 750 0
DWIDTH 18 0
BBX 17 19 1 0
BITMAP
001000
003800
007800
00D800
038C00
020400
000000
780700
386380
38E380
38C380
31C300
738300
638300
678600
ED8400
D98C00
F1F800
E0E000
ENDCHAR
STARTCHAR Ycircumflex
ENCODING 374
SWIDTH 580 0
DWIDTH 14 0
BBX 17 30 0 -6
BITMAP
000800
001C00
007C00
01EE00
008200
000000
0F0300
070380
070700
070600
0E0E00
0E0E00
0C1C00
1C1C00
183C00
387800
307800
70F000
70B000
61F000
E36000
E6E000
7CC000
79C000
018000
030000
070000
0E0000
1C0000
700000
ENDCHAR
STARTCHAR ycircumflex
ENCODING 375
SWIDTH 549 0
DWIDTH 13 0
BBX 12 25 1 -6
BITMAP
0040
00E0
01E0
0360
0E70
0810
0000
3830
3870
3870
38E0
30E0
71E0
63C0
E3C0
E580
CD80
FB80
E300
0300
0600
0E00
1C00
3800
7000
ENDCHAR
STARTCHAR Ydieresis
ENCODING 376
SWIDTH 580 0
DWIDTH 14 0
BBX 17 29 0 -6
BITMAP
00C700
01EF00
01C700
008200
000000
0F0300
070380
070700
070600
0E0E00
0E0E00
0C1C00
1C1C00
183C00
387800
307800
70F000
70B000
61F000
E36000
E6E000
7CC000
79C000
018000
030000
070000
0E0000
1C0000
700000
ENDCHAR
STARTCHAR Zacute
ENCODING 377
SWIDTH 501 0
DWIDTH 12 0
BBX 14 23 0 0
BITMAP
0018
0018
0038
0060
0000
1838
1FFC
0F9C
003C
0078
00F0
01E0
03C0
0780
0700
0E00
1C00
3800
7000
6000
CFC0
FFE0
F020
ENDCHAR
STARTCHAR zacute
ENCODING 378
SWIDTH 430 0
DWIDTH 10 0
BBX 12 19 0 0
BITMAP
0020
0070
0070
00E0
01C0
0300
0000
1860
1FE0
00E0
03C0
0780
0F00
1C00
3800
7000
6700
FF80
6180
ENDCHAR
STARTCHAR Zdotaccent
ENCODING 379
SWIDTH 501 0
DWIDTH 12 0
BBX 14 23 0 0
BITMAP
00E0
01E0
00E0
0080
0000
1838
1FFC
0F9C
003C
0078
00F0
01E0
03C0
0780
0700
0E00
1C00
3800
7000
6000
CFE0
FFE0
F020
ENDCHAR
STARTCHAR zdotaccent
ENCODING 380
SWIDTH 430 0
DWIDTH 10 0
BBX 11 18 0 0
BITMAP
0380
0380
0380
0000
0000
0000
1860
1FE0
00E0
03C0
0780
0F00
1C00
3800
7000
6700
FF80
6180
ENDCHAR
STARTCHAR Zcaron
ENCODING 381
SWIDTH 501 0
DWIDTH 12 0
BBX 14 23 0 0
BITMAP
0384
01DC
00F8
00C0
0000
1838
1FFC
0F9C
003C
0078
00F0
01E0
03C0
0780
0700
0E00
1C00
3800
7000
6000
CFC0
FFE0
F020
ENDCHAR
STARTCHAR zcaron
ENCODING 382
SWIDTH 430 0
DWIDTH 10 0
BBX 13 18 0 0
BITMAP
0618
0638
0770
03C0
0300
0000
1860
1FE0
00E0
03C0
0780
0F00
1C00
3800
7000
6700
FF80
6180
ENDCHAR
STARTCHAR florin
ENCODING 402
SWIDTH 466 0
DWIDTH 11 0
BBX 19 26 -5 -6
BITMAP
0003C0
000760
000E60
000C60
001CE0
0019E0
0039C0
003800
003000
007E00
01FF00
01E000
006000
00E000
00E000
00C000
00C000
01C000
01C000
018000
038000
030000
630000
E70000
7E0000
3C0000
ENDCHAR
STARTCHAR AEacute
ENCODING 508
SWIDTH 878 0
DWIDTH 21 0
BBX 25 23 -2 0
BITMAP
00001800
00001800
00003800
00006000
00000000
0003FF00
000FFB80
001CE180
0039C180
00738380
00638F00
00C30E00
01C30000
01830000
03FFF000
0FFFE000
06078000
0E070000
0C0E0000
180E0800
380E1800
700FF000
E003E000
ENDCHAR
STARTCHAR aeacute
ENCODING 509
SWIDTH 770 0
DWIDTH 19 0
BBX 17 19 1 0
BITMAP
001800
001800
003800
003800
007000
00C000
000000
073F00
1CFB80
38F380
70E380
70E380
E1C700
E1DE00
C3F800
C3C000
C7C300
ECEF00
707C00
ENDCHAR
STARTCHAR Scommaaccent
ENCODING 536
SWIDTH 474 0
DWIDTH 11 0
BBX 12 24 1 -6
BITMAP
03C0
0F60
1C30
3830
3830
3070
30F0
39E0
3880
3C00
1E00
0E00
0700
C700
C700
C600
EE00
7800
0000
7000
7000
3000
6000
C000
ENDCHAR
STARTCHAR scommaaccent
ENCODING 537
SWIDTH 423 0
DWIDTH 10 0
BBX 10 18 0 -6
BITMAP
0F80
1DC0
38C0
38C0
3800
1C00
1E00
0E00
4700
C600
FE00
7C00
0000
3000
7000
3000
6000
4000
ENDCHAR
STARTCHAR dotlessj
ENCODING 567
SWIDTH 277 0
DWIDTH 7 0
BBX 10 18 -4 -6
BITMAP
03C0
01C0
01C0
0180
0180
0380
0380
0300
0300
0700
0600
0E00
0C00
1C00
1800
3000
6000
C000
ENDCHAR
STARTCHAR circumflex
ENCODING 710
SWIDTH 354 0
DWIDTH 9 0
BBX 8 5 0 13
BITMAP
06
0E
1B
73
E3
ENDCHAR
STARTCHAR caron
ENCODING 711
SWIDTH 381 0
DWIDTH 9 0
BBX 8 5 1 13
BITMAP
C1
E3
6E
78
20
ENDCHAR
STARTCHAR breve
ENCODING 728
SWIDTH 344 0
DWIDTH 8 0
BBX 7 4 1 14
BITMAP
42
C2
E6
78
ENDCHAR
STARTCHAR dotaccent
ENCODING 729
SWIDTH 217 0
DWIDTH 5 0
BBX 3 3 2 15
BITMAP
E0
E0
E0
ENDCHAR
STARTCHAR ring
ENCODING 730
SWIDTH 402 0
DWIDTH 10 0
BBX 7 6 3 13
BITMAP
3C
6C
C6
CE
EC
78
ENDCHAR
STARTCHAR ogonek
ENCODING 731
SWIDTH 311 0
DWIDTH 7 0
BBX 6 7 1 -5
BITMAP
04
18
30
60
E0
E8
F0
ENDCHAR
STARTCHAR tilde
ENCODING 732
SWIDTH 397 0
DWIDTH 10 0
BBX 10 4 1 14
BITMAP
3840
7C80
4F80
C700
ENDCHAR
STARTCHAR hungarumlaut
ENCODING 733
SWIDTH 392 0
DWIDTH 9 0
BBX 9 6 1 13
BITMAP
1100
3180
3300
7300
6600
8C00
ENDCHAR
STARTCHAR pi
ENCODING 960
SWIDTH 640 0
DWIDTH 15 0
BBX 16 12 0 0
BITMAP
1FFF
3FFE
0638
0630
0C70
0C70
1C60
18E0
38E0
70E0
E0F8
E070
ENDCHAR
STARTCHAR uni1E02
ENCODING 7682
SWIDTH 551 0
DWIDTH 13 0
BBX 13 23 1 0
BITMAP
00E0
00E0
00E0
0040
0000
0FE0
3E78
7018
0C18
1E18
1C38
3838
3870
71E0
7F80
79C0
60E0
E0E0
C0E0
C1C0
C3C0
FF00
7C00
ENDCHAR
STARTCHAR uni1E03
ENCODING 7683
SWIDTH 525 0
DWIDTH 13 0
BBX 12 20 1 0
BITMAP
0800
0C00
0C70
0C70
1C70
1800
1800
3800
3380
37C0
78E0
70E0
70E0
E0E0
E1C0
C1C0
C380
C700
FE00
7C00
ENDCHAR
STARTCHAR uni1E0A
ENCODING 7690
SWIDTH 630 0
DWIDTH 15 0
BBX 15 23 1 0
BITMAP
0060
00F0
00E0
0040
0000
1FE0
7C78
301C
060C
0E0C
1E0E
1C0E
380C
381C
381C
7018
7038
6070
E0E0
E1C0
E380
EF00
7C00
ENDCHAR
STARTCHAR uni1E0B
ENCODING 7691
SWIDTH 557 0
DWIDTH 13 0
BBX 15 20 1 0
BITMAP
0004
000E
0E1C
1E1C
0E18
0038
0038
0030
07F0
0EF0
1860
30E0
70E0
60C0
E1C0
E1C0
E3C0
E780
EDF0
78E0
ENDCHAR
STARTCHAR uni1E1E
ENCODING 7710
SWIDTH 518 0
DWIDTH 12 0
BBX 14 23 1 0
BITMAP
0070
00F0
00F0
0040
0000
3F04
7FFC
F1F8
E300
4700
0700
0600
0E00
0FC0
3FE0
3C00
1C00
1800
3800
3000
7000
E000
C000
ENDCHAR
STARTCHAR uni1E1F
ENCODING 7711
SWIDTH 393 0
DWIDTH 9 0
BBX 13 27 0 -3
BITMAP
0080
01E0
01C0
01C0
00F0
0198
0398
0338
0770
0630
0600
0E00
0E00
0FC0
3FC0
3C00
1800
1800
3800
3800
3000
7000
7000
6000
E000
C000
C000
ENDCHAR
STARTCHAR uni1E40
ENCODING 7744
SWIDTH 931 0
DWIDTH 22 0
BBX 25 23 -3 0
BITMAP
00001C00
00001C00
00001C00
00000800
00000000
00078380
000F8780
001B0D80
00371F80
00661B00
006E3700
00CE3700
00CC6600
018CCE00
039CCE00
031D8C00
071D8C00
061B1C00
0C1B1C00
1C1E1C00
181E1C00
301C1F00
E0180E00
ENDCHAR
STARTCHAR uni1E41
ENCODING 7745
SWIDTH 814 0
DWIDTH 20 0
BBX 19 18 0 0
BITMAP
001C00
003C00
001C00
000000
000000
000000
1C71C0
1CF3E0
1DB6E0
1B3CC0
1E29C0
3C7180
387380
70E380
70C300
61C300
E183C0
C18380
ENDCHAR
STARTCHAR uni1E56
ENCODING 7766
SWIDTH 553 0
DWIDTH 13 0
BBX 16 23 -1 0
BITMAP
001C
001C
001C
0008
0000
03F8
0F8E
1E06
0987
0387
0307
070E
071E
063C
0FF0
0FC0
1C00
1C00
1800
3800
3000
6000
C000
ENDCHAR
STARTCHAR uni1E57
ENCODING 7767
SWIDTH 550 0
DWIDTH 13 0
BBX 14 24 -2 -6
BITMAP
0070
0070
0070
0000
0000
0000
0E38
06DC
078C
070C
0E0C
0E1C
0C1C
1C38
1C38
1C70
1FE0
3B80
3000
3000
7000
6000
E000
4000
ENDCHAR
STARTCHAR uni1E60
ENCODING 7776
SWIDTH 474 0
DWIDTH 11 0
BBX 12 23 1 0
BITMAP
00E0
01E0
01E0
0080
0000
03C0
0F60
1C30
3830
3830
3070
30F0
39E0
3880
3C00
1E00
0E00
0700
C700
C700
C600
EE00
7800
ENDCHAR
STARTCHAR uni1E61
ENCODING 7777
SWIDTH 423 0
DWIDTH 10 0
BBX 10 18 0 0
BITMAP
01C0
03C0
01C0
0000
0000
0000
0F80
1DC0
38C0
38C0
3800
1C00
1E00
0E00
4700
C600
FE00
7C00
ENDCHAR
STARTCHAR uni1E6A
ENCODING 7786
SWIDTH 430 0
DWIDTH 10 0
BBX 14 23 1 0
BITMAP
00E0
01E0
00E0
0080
0000
3F0C
FFF8
E3F8
C300
4700
0700
0700
0E00
0E00
0E00
0C00
1C00
1C00
1800
3800
3000
6000
C000
ENDCHAR
STARTCHAR uni1E6B
ENCODING 7787
SWIDTH 358 0
DWIDTH 9 0
BBX 8 19 2 0
BITMAP
06
0F
0E
04
0C
1C
18
FF
30
70
70
60
E0
E0
C0
C0
CC
F8
70
ENDCHAR
STARTCHAR Wgrave
ENCODING 7808
SWIDTH 941 0
DWIDTH 23 0
BBX 22 24 2 0
BITMAP
000800
001800
001C00
001C00
000600
000000
780018
FC003C
EE001C
0E001C
1C1E1C
1C3C1C
38781C
38F818
71F038
71F038
636030
E66070
CCE0E0
CCE0C0
D8E180
F0E300
F07E00
603C00
ENDCHAR
STARTCHAR wgrave
ENCODING 7809
SWIDTH 750 0
DWIDTH 18 0
BBX 17 19 1 0
BITMAP
006000
00E000
00E000
00E000
006000
002000
000000
780700
386380
38E380
38C380
31C300
738300
638300
678600
ED8400
D98C00
F1F800
E0E000
ENDCHAR
STARTCHAR Wacute
ENCODING 7810
SWIDTH 941 0
DWIDTH 23 0
BBX 22 23 2 0
BITMAP
000180
000380
000300
000600
000000
380018
FC003C
EE001C
0E001C
1C0E1C
1C3C1C
38781C
38F818
71F038
71F038
636030
E66070
E6E060
CCE0C0
D8E180
D0E300
F06E00
603C00
ENDCHAR
STARTCHAR wacute
ENCODING 7811
SWIDTH 750 0
DWIDTH 18 0
BBX 17 19 1 0
BITMAP
001000
001800
003800
007000
006000
00C000
000000
780700
386380
38E380
38C380
31C300
738300
638300
678600
ED8400
D98C00
F1F800
E0E000
ENDCHAR
STARTCHAR Wdieresis
ENCODING 7812
SWIDTH 941 0
DWIDTH 23 0
BBX 22 23 2 0
BITMAP
0039C0
0079C0
0039C0
002080
000000
780018
FC003C
EE001C
0E001C
1C1E1C
1C3C1C
38781C
38F818
71F038
71F038
636030
E66070
CCE0E0
CCE0C0
D8E180
F0E300
F07E00
603C00
ENDCHAR
STARTCHAR wdieresis
ENCODING 7813
SWIDTH 750 0
DWIDTH 18 0
BBX 17 18 1 0
BITMAP
038E00
03DE00
038E00
000000
000000
000000
780700
386380
38E380
38C380
31C300
738300
638300
678600
ED8400
D98C00
F1F800
E0E000
ENDCHAR
STARTCHAR Ygrave
ENCODING 7922
SWIDTH 580 0
DWIDTH 14 0
BBX 17 30 0 -6
BITMAP
002000
006000
006000
007000
000800
000000
0F0300
070380
070700
070600
0E0E00
0E0E00
0C1C00
1C1C00
183C00
387800
307800
70F000
70B000
61F000
E36000
E6E000
7CC000
79C000
018000
030000
070000
0E0000
1C0000
700000
ENDCHAR
STARTCHAR ygrave
ENCODING 7923
SWIDTH 549 0
DWIDTH 13 0
BBX 12 25 1 -6
BITMAP
0380
0380
0380
0380
0180
0080
0000
3830
3870
3870
38E0
30E0
71E0
63C0
E3C0
E580
CD80
FB80
E300
0300
0600
0E00
1C00
3800
7000
ENDCHAR
STARTCHAR endash
ENCODING 8211
SWIDTH 751 0
DWIDTH 18 0
BBX 14 2 2 6
BITMAP
7FFC
FFFC
ENDCHAR
STARTCHAR emdash
ENCODING 8212
SWIDTH 1066 0
DWIDTH 26 0
BBX 22 2 2 6
BITMAP
7FFFFC
FFFFFC
ENDCHAR
STARTCHAR quoteleft
ENCODING 8216
SWIDTH 268 0
DWIDTH 6 0
BBX 4 6 3 14
BITMAP
10
60
60
E0
E0
60
ENDCHAR
STARTCHAR quoteright
ENCODING 8217
SWIDTH 268 0
DWIDTH 6 0
BBX 5 6 3 13
BITMAP
30
78
38
30
70
C0
ENDCHAR
STARTCHAR quotesinglbase
ENCODING 8218
SWIDTH 268 0
DWIDTH 6 0
BBX 4 6 0 -3
BITMAP
70
70
30
30
60
C0
ENDCHAR
STARTCHAR quotedblleft
ENCODING 8220
SWIDTH 485 0
DWIDTH 12 0
BBX 10 6 3 14
BITMAP
18C0
3380
6300
6700
E700
6700
ENDCHAR
STARTCHAR quotedblright
ENCODING 8221
SWIDTH 480 0
DWIDTH 12 0
BBX 10 6 3 14
BITMAP
3980
39C0
39C0
3180
3300
E600
ENDCHAR
STARTCHAR quotedblbase
ENCODING 8222
SWIDTH 463 0
DWIDTH 11 0
BBX 9 6 0 -3
BITMAP
7300
7380
3380
3380
6300
C600
ENDCHAR
STARTCHAR dagger
ENCODING 8224
SWIDTH 488 0
DWIDTH 12 0
BBX 10 18 2 0
BITMAP
0600
0700
0700
0E00
7FC0
7F80
0E00
1C00
1C00
1800
3800
3800
3000
3000
6000
6000
C000
8000
ENDCHAR
STARTCHAR daggerdbl
ENCODING 8225
SWIDTH 488 0
DWIDTH 12 0
BBX 10 18 2 0
BITMAP
0600
0700
0700
0E00
7FC0
7F80
0E00
1C00
1C00
1800
FF00
FE00
3000
3000
6000
6000
C000
8000
ENDCHAR
STARTCHAR bullet
ENCODING 8226
SWIDTH 437 0
DWIDTH 10 0
BBX 5 6 3 5
BITMAP
78
F8
F8
F8
F8
60
ENDCHAR
STARTCHAR ellipsis
ENCODING 8230
SWIDTH 810 0
DWIDTH 19 0
BBX 16 4 1 -1
BITMAP
E187
E3C7
E3C7
4182
ENDCHAR
STARTCHAR perthousand
ENCODING 8240
SWIDTH 1184 0
DWIDTH 28 0
BBX 25 18 2 0
BITMAP
1C060000
760C0000
66180000
E6380000
C6300000
CE600000
CCE00000
78C00000
01800000
03800000
031E0F00
06373B00
0E633380
0CE77380
18E76300
38E66700
306C7E00
60783C00
ENDCHAR
STARTCHAR guilsinglleft
ENCODING 8249
SWIDTH 413 0
DWIDTH 10 0
BBX 7 10 2 2
BITMAP
02
0C
38
70
E0
E0
70
38
1C
08
ENDCHAR
STARTCHAR guilsinglright
ENCODING 8250
SWIDTH 416 0
DWIDTH 10 0
BBX 8 10 1 2
BITMAP
30
38
1C
0E
07
0E
1C
70
C0
80
ENDCHAR
STARTCHAR fraction
ENCODING 8260
SWIDTH 580 0
DWIDTH 14 0
BBX 12 20 1 0
BITMAP
0010
0030
0070
0060
00E0
00C0
0180
0180
0300
0700
0600
0C00
0C00
1800
3800
3000
7000
6000
C000
C000
ENDCHAR
STARTCHAR Euro
ENCODING 8364
SWIDTH 622 0
DWIDTH 15 0
BBX 15 18 1 0
BITMAP
003C
00E6
01C6
0386
070E
0E1C
0E1C
1C00
7FC0
1800
3800
FF80
3800
3800
3800
1830
1EE0
07C0
ENDCHAR
STARTCHAR trademark
ENCODING 8482
SWIDTH 1084 0
DWIDTH 26 0
BBX 19 10 4 8
BITMAP
7F9C60
FFBCE0
183DE0
187960
305B60
30DAE0
309EE0
319CE0
3B1CE0
120820
ENDCHAR
STARTCHAR Omega
ENCODING 8486
SWIDTH 839 0
DWIDTH 20 0
BBX 18 18 1 0
BITMAP
03F000
0FBC00
1C0E00
380700
300380
700380
700380
700180
7001C0
700380
700380
700380
380300
180700
1C0E00
CE0C40
FE1FC0
7F3FC0
ENDCHAR
STARTCHAR partialdiff
ENCODING 8706
SWIDTH 580 0
DWIDTH 14 0
BBX 13 19 1 0
BITMAP
03E0
0730
0630
0618
0018
0018
0FF8
1C78
3870
7070
7070
E060
E0E0
E0E0
C1C0
C380
C780
EF00
7C00
ENDCHAR
STARTCHAR Delta
ENCODING 8710
SWIDTH 663 0
DWIDTH 16 0
BBX 15 14 0 0
BITMAP
01C0
01C0
03E0
02E0
0660
0C70
0C30
1838
1818
301C
300C
600E
4006
FFFE
ENDCHAR
STARTCHAR product
ENCODING 8719
SWIDTH 667 0
DWIDTH 16 0
BBX 12 20 2 -2
BITMAP
7FF0
C030
C030
C030
C030
C030
C030
C030
C030
C030
C030
C030
C030
C030
C030
C030
C030
C030
C030
C030
ENDCHAR
STARTCHAR summation
ENCODING 8721
SWIDTH 677 0
DWIDTH 16 0
BBX 14 20 1 -2
BITMAP
3FFC
7000
7800
3C00
1C00
1E00
0F00
0700
0780
0380
0380
0300
0600
0E00
1C00
3800
7000
6000
FFF8
FFF8
ENDCHAR
STARTCHAR minus
ENCODING 8722
SWIDTH 617 0
DWIDTH 15 0
BBX 12 2 1 8
BITMAP
7FF0
FFF0
ENDCHAR
STARTCHAR radical
ENCODING 8730
SWIDTH 709 0
DWIDTH 17 0
BBX 18 23 1 0
BITMAP
000040
0000C0
0000C0
0001C0
000180
000380
000700
000700
000E00
000C00
001C00
301800
783800
783000
D87000
1C6000
1CC000
0CC000
0D8000
0D8000
0F0000
0E0000
060000
ENDCHAR
STARTCHAR infinity
ENCODING 8734
SWIDTH 681 0
DWIDTH 16 0
BBX 15 7 1 5
BITMAP
3C78
7FFC
E3C4
C386
C78C
7EFC
3878
ENDCHAR
STARTCHAR integral
ENCODING 8747
SWIDTH 583 0
DWIDTH 14 0
BBX 19 27 -2 -5
BITMAP
0003C0
000760
000E60
001C60
001CE0
0039C0
003800
003000
007000
007000
006000
00E000
00E000
00E000
00C000
01C000
01C000
018000
038000
038000
630000
F70000
E60000
CE0000
DC0000
780000
200000
ENDCHAR
STARTCHAR approxequal
ENCODING 8776
SWIDTH 671 0
DWIDTH 16 0
BBX 14 10 1 3
BITMAP
1F04
3F8C
63F8
61F0
0040
1C08
3F08
6798
C3F0
81E0
ENDCHAR
STARTCHAR notequal
ENCODING 8800
SWIDTH 617 0
DWIDTH 15 0
BBX 12 15 2 1
BITMAP
0060
00C0
01C0
0180
FFF0
FFE0
0600
0C00
0C00
FFF0
3800
3000
6000
E000
C000
ENDCHAR
STARTCHAR lessequal
ENCODING 8804
SWIDTH 704 0
DWIDTH 17 0
BBX 13 16 1 0
BITMAP
0010
0070
01E0
0780
0E00
3C00
F000
7800
1E00
0780
01C0
0070
0030
0000
7FF8
7FF0
ENDCHAR
STARTCHAR greaterequal
ENCODING 8805
SWIDTH 617 0
DWIDTH 15 0
BBX 13 16 1 0
BITMAP
6000
7000
1C00
0F00
03C0
00F0
0078
01E0
0780
0E00
3800
7000
4000
0000
7FF0
FFF0
ENDCHAR
STARTCHAR lozenge
ENCODING 9674
SWIDTH 580 0
DWIDTH 14 0
BBX 12 18 1 0
BITMAP
0600
0E00
0F00
1B80
1980
31C0
60C0
6060
C070
C030
6060
70C0
30C0
1980
1980
0F00
0E00
0600
ENDCHAR
STARTCHAR commaaccent
ENCODING 63171
SWIDTH 250 0
DWIDTH 6 0
BBX 4 5 1 -6
BITMAP
60
70
70
60
C0
ENDCHAR
STARTCHAR ff
ENCODING 64256
SWIDTH 773 0
DWIDTH 19 0
BBX 22 23 0 -3
BITMAP
00F078
0198EC
0399CC
03399C
07719C
063398
060300
0E0300
0E0700
0FFFE0
3FFFE0
7C0E00
1C0E00
180C00
380C00
381C00
301800
701800
703800
603000
E07000
C07000
C06000
ENDCHAR
STARTCHAR fi
ENCODING 64257
SWIDTH 623 0
DWIDTH 15 0
BBX 17 23 -1 -3
BITMAP
003E00
007300
00E300
01C380
018380
038700
030700
070000
07FE00
1FCE00
3E0E00
0E0E00
0C0C00
0C1C00
1C1800
1C1800
183800
383000
383C00
301C00
700000
600000
E00000
ENDCHAR
STARTCHAR fl
ENCODING 64258
SWIDTH 637 0
DWIDTH 15 0
BBX 17 23 -1 -3
BITMAP
003E00
007780
00E380
01C380
018380
038300
030300
070700
070700
07C600
1FEE00
3E0E00
0E0C00
0C1C00
1C1C00
1C1800
183800
383800
383E00
301C00
700000
600000
E00000
ENDCHAR
STARTCHAR .notdef
ENCODING -1
SWIDTH 896 0
DWIDTH 22 0
BBX 23 21 1 0
BITMAP
03FFFC
03FFFE
07FFFC
07FFFC
07FFFC
0F9E38
0F18F8
0F19F8
0F13F8
1F07F0
1F8FF0
1F8FF0
3F8FE0
3F4FE0
3E47E0
7CE1E0
79F3C0
7FFFC0
7FFFC0
FFFF80
7FFF80
ENDCHAR
ENDFONT
